<?xml version="1.0" encoding="UTF-8"?>
<svg width="25px" height="25px" viewBox="0 0 25 25" version="1.1" xmlns="http://www.w3.org/2000/svg" xmlns:xlink="http://www.w3.org/1999/xlink">
    <!-- Generator: Sketch 42 (36781) - http://www.bohemiancoding.com/sketch -->
    <title>link</title>
    <desc>Created with Sketch.</desc>
    <defs></defs>
    <g id="Page-1" stroke="none" stroke-width="1" fill="none" fill-rule="evenodd">
        <g id="Full-Color" transform="translate(-200.000000, -50.000000)">
            <g id="link" transform="translate(199.000000, 49.000000)">
                <path d="M13.2803,16.5529 L12.9263,16.1989 L10.0603,19.0639 C9.7773,19.3469 9.4003,19.5029 9.0003,19.5029 C8.5993,19.5029 8.2223,19.3469 7.9393,19.0639 C7.3543,18.4789 7.3543,17.5279 7.9393,16.9429 L10.8043,14.0769 L10.4603,13.7339 L9.8003,13.0739 C9.0403,12.3139 7.8103,12.3139 7.0503,13.0739 L2.3603,17.7629 C1.4003,18.7229 1.2193,20.2029 1.9303,21.3529 C2.2903,21.9329 2.8203,22.6139 3.6103,23.3929 C4.3903,24.1829 5.0703,24.7129 5.6503,25.0739 C6.8003,25.7829 8.2803,25.6029 9.2403,24.6429 L13.9303,19.9529 C14.6903,19.1929 14.6903,17.9629 13.9303,17.2029 L13.2803,16.5529 Z M24.6403,9.2429 L19.9503,13.9329 C19.1903,14.6929 17.9603,14.6929 17.2003,13.9329 L16.5503,13.2829 L16.1953,12.9289 L19.0603,10.0639 C19.6453,9.4789 19.6453,8.5279 19.0603,7.9429 C18.7773,7.6589 18.4003,7.5029 18.0003,7.5029 C17.5993,7.5029 17.2223,7.6589 16.9393,7.9429 L14.0743,10.8079 L13.7303,10.4629 L13.0703,9.8029 C12.3103,9.0429 12.3103,7.8139 13.0703,7.0529 L17.7593,2.3639 C18.7193,1.4039 20.2003,1.2229 21.3503,1.9329 C21.9303,2.2929 22.6103,2.8239 23.3903,3.6139 C24.1803,4.3929 24.7103,5.0739 25.0703,5.6539 C25.7803,6.8029 25.6003,8.2829 24.6403,9.2429 L24.6403,9.2429 Z" id="Fill-122" fill="#339EFF"></path>
                <path d="M8.6465,18.3566 C8.7445,18.4546 8.8725,18.5026 9.0005,18.5026 C9.1275,18.5026 9.2555,18.4546 9.3535,18.3566 L18.3535,9.3566 C18.5485,9.1616 18.5485,8.8446 18.3535,8.6496 C18.1585,8.4546 17.8415,8.4546 17.6465,8.6496 L8.6465,17.6496 C8.4515,17.8446 8.4515,18.1616 8.6465,18.3566 L8.6465,18.3566 Z M25.4945,5.3896 C25.0675,4.7016 24.4775,3.9836 23.7465,3.2616 C23.0175,2.5246 22.2995,1.9346 21.6125,1.5066 C20.2655,0.6756 18.5355,0.8806 17.4065,2.0096 L12.7165,6.6996 C11.7635,7.6526 11.7635,9.2036 12.7165,10.1566 L13.3765,10.8166 C13.5715,11.0116 13.8885,11.0116 14.0835,10.8166 C14.2785,10.6216 14.2785,10.3046 14.0835,10.1096 L13.4235,9.4496 C12.8605,8.8856 12.8605,7.9696 13.4235,7.4066 L18.1135,2.7166 C18.9125,1.9186 20.1355,1.7696 21.0865,2.3576 C21.7055,2.7426 22.3605,3.2836 23.0395,3.9696 C23.7185,4.6396 24.2595,5.2946 24.6445,5.9166 C25.2325,6.8686 25.0855,8.0906 24.2865,8.8896 L19.5965,13.5796 C19.0495,14.1266 18.1005,14.1266 17.5535,13.5796 L16.9035,12.9296 C16.7085,12.7346 16.3915,12.7346 16.1955,12.9296 C16.0005,13.1256 16.0005,13.4426 16.1965,13.6366 L16.8465,14.2866 C17.3085,14.7486 17.9225,15.0026 18.5755,15.0026 C19.2275,15.0026 19.8415,14.7486 20.3035,14.2866 L24.9935,9.5966 C26.1225,8.4686 26.3285,6.7396 25.4945,5.3896 L25.4945,5.3896 Z M14.2835,16.8496 C15.2365,17.8026 15.2365,19.3536 14.2835,20.3066 L9.5935,24.9966 C8.9275,25.6626 8.0525,26.0066 7.1705,26.0066 C6.5565,26.0066 5.9395,25.8396 5.3875,25.4996 C4.7005,25.0716 3.9825,24.4816 3.2535,23.7446 C2.5225,23.0226 1.9325,22.3046 1.5055,21.6166 C0.6715,20.2666 0.8775,18.5376 2.0065,17.4096 L6.6965,12.7196 C7.6205,11.7956 9.2305,11.7966 10.1535,12.7196 L10.8135,13.3796 C11.0085,13.5756 11.0085,13.8916 10.8135,14.0866 C10.6185,14.2826 10.3015,14.2826 10.1065,14.0866 L9.4465,13.4266 C8.8995,12.8806 7.9505,12.8786 7.4035,13.4266 L2.7135,18.1166 C1.9145,18.9156 1.7675,20.1376 2.3555,21.0896 C2.7405,21.7106 3.2815,22.3666 3.9605,23.0366 C4.6395,23.7226 5.2945,24.2636 5.9135,24.6486 C6.8635,25.2356 8.0865,25.0866 8.8865,24.2896 L13.5765,19.5996 C14.1395,19.0366 14.1395,18.1206 13.5765,17.5566 L12.9265,16.9066 C12.7305,16.7106 12.7305,16.3946 12.9265,16.1996 C13.1215,16.0036 13.4385,16.0036 13.6335,16.1996 L14.2835,16.8496 Z" id="Fill-176" fill="#000000"></path>
                <path d="M16.8467,14.2863 L16.1867,13.6263 C15.9927,13.4323 15.9917,13.1163 16.1847,12.9213 L17.2247,11.8713 C17.3877,11.7063 17.6447,11.6743 17.8397,11.7963 C18.3947,12.1313 19.1337,12.0413 19.5967,11.5793 L24.2857,6.8903 C24.5277,6.6483 24.7177,6.3453 24.8527,5.9873 C24.9257,5.7913 25.0817,5.6473 25.3227,5.6633 C25.5317,5.6643 25.7177,5.7953 25.7897,5.9903 C26.2477,7.2383 25.9357,8.6543 24.9927,9.5973 L20.3037,14.2863 C19.8417,14.7483 19.2287,15.0033 18.5757,15.0033 C17.9217,15.0033 17.3087,14.7483 16.8467,14.2863 Z M3.2539,23.7443 C2.5229,23.0223 1.9329,22.3053 1.5049,21.6163 C0.9589,20.7313 0.8539,19.6573 1.2139,18.6673 C1.2849,18.4703 1.4599,18.3563 1.6839,18.3383 C1.8919,18.3383 2.0779,18.4673 2.1509,18.6623 C2.2069,18.8083 2.2719,18.9533 2.3559,19.0913 C2.7399,19.7103 3.2809,20.3653 3.9619,21.0363 C4.6379,21.7223 5.2929,22.2633 5.9139,22.6483 C6.8629,23.2353 8.0859,23.0893 8.8869,22.2893 L13.5759,17.5993 C13.6499,17.5253 13.7169,17.4363 13.7879,17.3203 C13.9679,17.0213 14.4639,17.0203 14.6439,17.3193 C15.2269,18.2843 15.0779,19.5123 14.2829,20.3063 L9.5939,24.9963 C8.9279,25.6623 8.0529,26.0073 7.1709,26.0073 C6.5579,26.0073 5.9409,25.8403 5.3879,25.4993 C4.6979,25.0703 3.9809,24.4803 3.2539,23.7443 Z" id="Combined-Shape" fill="#000000" opacity="0.119999997"></path>
            </g>
        </g>
    </g>
</svg>