<?xml version="1.0" standalone="no"?>
<!DOCTYPE svg PUBLIC "-//W3C//DTD SVG 20010904//EN"
 "http://www.w3.org/TR/2001/REC-SVG-20010904/DTD/svg10.dtd">
<svg version="1.0" xmlns="http://www.w3.org/2000/svg"
 width="460.000000pt" height="460.000000pt" viewBox="0 0 460.000000 460.000000"
 preserveAspectRatio="xMidYMid meet">
<metadata>
Created by potrace 1.14, written by Peter Selinger 2001-2017
</metadata>
<g transform="translate(0.000000,460.000000) scale(0.100000,-0.100000)"
fill="#000000" stroke="none">
<path d="M2217 4234 c-1 -1 -49 -5 -107 -8 -145 -9 -207 -17 -260 -31 -18 -5
-69 -16 -90 -20 -97 -19 -327 -103 -470 -174 -99 -48 -296 -175 -340 -217 -14
-14 -39 -37 -56 -52 -71 -63 -121 -112 -149 -147 -16 -20 -36 -43 -44 -52 -35
-37 -116 -154 -152 -218 -22 -38 -44 -77 -49 -85 -5 -8 -21 -42 -36 -75 -14
-33 -31 -73 -39 -90 -22 -50 -33 -85 -64 -205 -33 -127 -36 -142 -46 -226 -4
-33 -9 -70 -12 -84 -9 -44 -12 -413 -3 -470 5 -30 11 -79 14 -108 11 -96 17
-126 41 -212 13 -47 27 -100 30 -119 20 -95 171 -396 250 -495 127 -160 159
-195 285 -306 74 -65 242 -180 343 -234 37 -20 68 -36 70 -35 2 0 85 -35 122
-51 26 -12 77 -32 90 -36 6 -1 39 -12 75 -24 36 -11 85 -26 110 -31 25 -6 52
-12 60 -15 132 -35 272 -48 510 -49 151 0 377 12 391 21 3 2 21 6 40 9 19 3
61 13 94 21 33 9 69 18 79 20 11 2 49 14 85 26 36 12 68 23 71 23 10 3 46 18
87 36 24 10 45 19 48 19 16 0 213 104 256 135 27 19 51 35 54 35 14 0 144 101
222 173 132 122 241 253 315 381 92 158 155 300 188 426 28 103 30 112 36 139
3 14 7 28 9 31 3 4 7 34 10 66 4 32 8 66 10 74 10 38 18 167 19 290 1 184 -24
385 -70 560 -2 8 -10 42 -19 75 -20 84 -110 298 -140 335 -7 8 -27 42 -44 75
-30 54 -68 111 -96 141 -5 7 -19 24 -29 38 -37 51 -82 100 -146 161 -129 122
-165 150 -329 257 -28 19 -163 92 -171 93 -3 0 -9 3 -15 7 -43 26 -293 116
-385 138 -176 41 -186 43 -345 56 -76 6 -303 12 -308 8z"/>
</g>
</svg>
