<?xml version="1.0" standalone="no"?>
<!DOCTYPE svg PUBLIC "-//W3C//DTD SVG 20010904//EN"
 "http://www.w3.org/TR/2001/REC-SVG-20010904/DTD/svg10.dtd">
<svg version="1.0" xmlns="http://www.w3.org/2000/svg"
 width="400.000000pt" height="400.000000pt" viewBox="0 0 400.000000 400.000000"
 preserveAspectRatio="xMidYMid meet">

<g transform="translate(0.000000,400.000000) scale(0.100000,-0.100000)"
fill="#000000" stroke="none">
<path d="M742 3973 c7 -16 17 -35 23 -43 7 -8 18 -31 25 -50 22 -56 43 -72 90
-72 85 1 98 9 115 65 8 28 15 56 15 62 0 7 9 24 21 39 17 21 18 26 5 26 -8 0
-20 -9 -26 -20 -6 -11 -20 -20 -30 -20 -11 0 -25 9 -32 20 -16 25 -102 29
-112 5 -3 -8 -16 -15 -29 -15 -14 0 -30 7 -37 15 -7 8 -19 15 -26 15 -11 0
-11 -5 -2 -27z m158 7 c0 -5 -3 -10 -8 -10 -4 0 -12 -10 -17 -22 -6 -13 -20
-24 -32 -26 -31 -4 -29 16 2 30 14 6 25 17 25 25 0 7 7 13 15 13 8 0 15 -4 15
-10z m70 -59 c0 -12 -28 -22 -34 -12 -3 5 -3 11 1 15 9 9 33 7 33 -3z m-22
-42 c-2 -6 -8 -10 -13 -10 -5 0 -11 4 -13 10 -2 6 4 11 13 11 9 0 15 -5 13
-11z"/>
<path d="M1639 3672 c-8 -10 -21 -19 -29 -19 -66 -3 -200 -17 -270 -29 -47 -8
-103 -17 -125 -19 -48 -6 -95 -24 -95 -36 0 -5 -10 -9 -22 -9 -13 0 -46 -18
-75 -39 -64 -49 -86 -61 -112 -61 -23 0 -28 -15 -8 -23 7 -3 5 -6 -5 -6 -10
-1 -18 -5 -18 -10 0 -5 -10 -13 -22 -17 -44 -14 -258 -247 -258 -280 0 -6 -7
-14 -15 -18 -8 -3 -25 -27 -37 -53 -12 -26 -37 -67 -55 -90 -18 -23 -33 -46
-33 -51 0 -5 -7 -15 -15 -22 -8 -6 -14 -15 -13 -18 3 -14 -23 -92 -31 -92 -4
0 -8 -34 -9 -76 0 -56 -5 -81 -18 -95 -14 -16 -15 -21 -4 -35 12 -13 11 -17
-1 -24 -11 -8 -12 -13 -2 -29 12 -19 9 -103 -4 -124 -4 -6 -6 -43 -6 -81 1
-38 -2 -78 -7 -87 -7 -11 -5 -21 4 -28 9 -8 16 -48 21 -124 4 -62 12 -118 18
-125 7 -8 7 -16 1 -20 -5 -4 -20 -32 -34 -62 -22 -48 -25 -65 -22 -160 2 -81
7 -117 25 -160 22 -54 51 -89 74 -90 6 0 24 -14 40 -31 23 -25 58 -47 83 -54
3 0 16 -7 30 -15 14 -8 41 -15 60 -16 75 -4 154 -14 159 -22 3 -4 28 -40 54
-80 27 -40 59 -78 73 -84 13 -6 24 -19 24 -28 0 -17 79 -110 94 -110 4 0 23
-16 42 -35 18 -19 37 -35 41 -35 5 0 22 -13 38 -28 17 -16 42 -36 57 -46 26
-17 27 -21 23 -84 -7 -126 -31 -196 -67 -198 -10 0 -31 -1 -47 -2 -20 -1 -47
-19 -87 -57 -33 -31 -78 -65 -101 -76 -24 -11 -45 -25 -49 -30 -3 -5 -14 -9
-24 -9 -10 0 -26 -7 -35 -16 -16 -16 -48 -35 -162 -95 -35 -18 -63 -36 -63
-39 0 -11 -239 -250 -250 -250 -6 0 -10 -4 -10 -10 0 -6 29 -10 68 -10 41 0
62 4 53 9 -9 6 -10 11 -2 15 6 4 11 4 11 -1 0 -4 5 -1 11 7 9 12 10 10 6 -8
-5 -23 -5 -23 88 -21 52 1 94 4 93 8 -2 20 4 23 15 7 10 -14 18 -15 40 -7 17
7 27 7 27 1 0 -6 20 -10 43 -10 36 0 46 4 54 22 l10 23 7 -22 c5 -17 15 -23
37 -23 16 0 29 5 29 13 0 8 3 9 8 1 9 -14 185 -15 194 -1 4 7 11 7 21 -2 12
-9 16 -9 21 1 5 10 7 10 12 1 3 -7 15 -13 25 -13 11 0 18 4 15 9 -3 5 1 11 9
14 9 4 12 1 9 -7 -3 -9 5 -13 25 -13 17 0 28 4 25 9 -3 4 0 8 5 8 6 0 11 -4
11 -10 0 -5 18 -10 40 -10 33 0 43 5 51 22 9 22 9 22 6 2 l-5 -22 379 -1 c350
0 378 1 382 17 4 16 5 16 6 0 1 -21 17 -24 24 -5 4 9 6 9 6 0 1 -17 28 -17 34
0 4 9 8 8 16 -3 6 -8 11 -10 11 -5 0 6 9 11 20 12 11 1 18 -2 15 -8 -4 -5 9
-9 29 -9 19 0 36 5 38 12 3 7 9 8 19 2 18 -12 58 -12 56 -1 -1 5 4 12 11 14 8
3 10 -1 6 -12 -5 -13 0 -15 29 -13 22 1 33 6 30 14 -2 6 -14 10 -26 8 -21 -4
-21 -4 -2 4 19 9 58 -5 50 -18 -2 -3 8 -7 21 -8 23 -2 24 1 19 32 -6 31 -5 33
24 34 17 0 31 -4 31 -9 0 -6 -5 -7 -12 -3 -8 5 -9 2 -5 -9 7 -19 -4 -22 -20
-6 -7 7 -9 3 -6 -14 4 -23 10 -25 53 -25 47 -1 48 0 46 26 -2 14 -8 28 -15 30
-8 3 -10 -4 -5 -24 7 -25 6 -27 -7 -14 -19 19 -20 62 -1 55 7 -3 30 -6 50 -6
24 -1 29 -3 15 -6 -17 -3 -23 -11 -23 -29 0 -29 24 -41 46 -23 13 10 17 10 24
0 9 -16 30 -6 30 15 0 9 5 12 11 8 15 -9 3 96 -13 111 -7 7 -8 2 -3 -15 7 -22
6 -23 -8 -11 -9 7 -14 17 -11 22 3 5 -2 9 -10 9 -13 0 -14 -4 -4 -25 6 -14 15
-25 20 -25 16 0 7 -30 -13 -40 -19 -11 -20 -10 -9 9 9 17 8 22 -5 27 -8 3 -15
15 -15 25 0 11 -6 28 -12 40 -11 17 -10 22 12 39 23 18 26 18 38 3 16 -22 16
-41 0 -25 -15 15 -38 16 -38 1 0 -5 5 -7 10 -4 6 4 18 1 27 -6 13 -11 18 -10
30 6 14 19 15 19 8 -5 -7 -22 -6 -23 9 -11 14 12 16 11 14 -10 -2 -15 2 -23
10 -22 6 2 12 -2 12 -7 0 -6 -9 -10 -20 -10 -18 0 -19 -2 -8 -20 7 -11 22 -20
34 -20 28 0 36 -10 21 -28 -10 -13 -9 -14 1 -8 7 4 12 4 11 -1 -3 -19 2 -33
13 -33 6 0 8 3 5 7 -4 3 -2 12 4 19 6 8 9 21 5 29 -7 18 1 19 33 1 15 -8 20
-16 12 -20 -6 -4 -11 -2 -11 3 0 6 -4 11 -10 11 -13 0 -9 -21 7 -38 17 -18
199 -14 214 4 6 7 18 11 27 8 9 -3 6 2 -8 10 -25 15 -16 21 14 10 24 -9 19
-32 -6 -37 -17 -3 -14 -5 10 -6 24 -1 32 3 32 16 0 15 1 15 13 -2 9 -11 19
-15 27 -10 10 6 9 9 -1 16 -12 8 -11 11 1 20 11 8 12 12 3 16 -7 2 -13 11 -13
19 0 9 4 13 8 10 4 -3 24 -1 44 3 33 8 36 7 47 -26 7 -19 10 -37 7 -40 -3 -4
-6 1 -6 10 0 17 -29 51 -37 43 -3 -3 2 -12 11 -21 9 -9 16 -21 16 -26 0 -14
-20 -11 -26 4 -3 8 -12 14 -20 14 -8 0 -13 -5 -11 -11 3 -6 10 -10 17 -8 7 2
10 -3 7 -10 -3 -10 9 -13 47 -13 28 0 57 4 65 9 9 6 12 5 8 0 -3 -6 3 -11 14
-11 17 -2 18 0 4 13 -19 20 -19 38 0 31 8 -4 17 -2 20 3 4 6 1 10 -5 10 -6 0
-8 5 -4 11 4 8 0 8 -15 0 -11 -7 -21 -17 -21 -23 0 -6 -3 -8 -6 -5 -4 4 -2 13
4 20 9 10 7 17 -8 29 -18 16 -30 14 -30 -4 0 -5 4 -6 10 -3 15 9 11 -17 -5
-39 -15 -19 -15 -19 -15 3 0 12 -5 31 -10 42 -7 13 -7 19 -1 19 7 0 7 9 1 25
-5 14 -7 32 -4 40 4 10 0 15 -15 15 -14 0 -21 6 -21 20 0 11 7 20 15 20 17 0
20 -16 5 -23 -6 -3 -5 -4 2 -3 7 2 19 -4 26 -13 9 -10 11 -11 6 -2 -5 11 -3
13 9 8 10 -3 17 -2 17 3 0 6 -9 10 -20 10 -13 0 -18 5 -13 15 3 9 2 15 -3 14
-17 -4 -44 13 -38 23 4 6 10 5 15 -3 4 -8 6 3 5 25 -3 36 -2 37 23 31 14 -3
22 -2 16 2 -16 12 -17 35 -3 45 10 8 10 11 1 15 -15 5 -17 23 -4 23 5 0 12 -9
16 -19 3 -10 15 -21 25 -24 12 -3 20 -14 20 -27 0 -15 -5 -20 -14 -17 -8 3
-17 -1 -20 -9 -3 -8 -2 -13 3 -10 5 3 12 -2 15 -11 4 -9 2 -20 -5 -23 -8 -6
-7 -9 2 -13 9 -3 10 -6 2 -6 -6 -1 -15 3 -18 9 -3 5 -14 10 -23 9 -10 0 -12
-3 -5 -5 7 -3 9 -12 7 -19 -4 -10 2 -13 22 -12 33 2 47 -28 17 -36 -17 -4 -17
-5 0 -6 10 -1 21 9 27 24 13 35 38 23 32 -15 -3 -23 0 -30 12 -30 12 0 15 -8
12 -41 -4 -37 -3 -39 11 -22 14 17 14 16 9 -7 -3 -14 -6 -34 -6 -44 0 -20 0
-20 -15 0 -13 16 -14 17 -9 1 4 -10 3 -17 -2 -16 -26 4 -36 -1 -25 -15 8 -9
36 -14 89 -14 42 -1 72 1 66 4 -7 3 -10 14 -7 24 6 22 23 27 23 8 0 -6 3 -8 6
-5 4 4 1 13 -6 22 -15 18 0 20 19 2 11 -10 13 -9 8 5 -3 10 -2 20 3 23 6 4 10
1 10 -5 0 -7 6 -10 14 -7 8 3 18 -4 24 -18 9 -19 8 -26 -5 -37 -9 -7 -19 -12
-22 -11 -3 1 -7 0 -9 -2 -6 -6 114 1 124 8 6 3 14 3 18 -1 4 -4 27 -7 52 -8
40 -1 44 1 44 22 0 28 15 32 24 7 4 -9 1 -20 -6 -25 -10 -6 -8 -8 5 -8 15 0
17 14 17 160 0 126 -3 161 -14 167 -8 4 -40 32 -73 60 -79 72 -129 113 -137
113 -3 0 -38 21 -77 46 -39 25 -81 49 -93 54 -11 4 -51 22 -88 39 -83 39 -150
52 -253 50 -51 -1 -80 2 -83 10 -2 6 -10 11 -19 11 -8 0 -13 -6 -10 -12 4 -14
-56 -47 -84 -48 -9 0 -19 7 -23 15 -3 8 -12 15 -19 15 -8 0 -17 14 -21 31 -3
18 -10 28 -17 24 -5 -4 -9 -1 -8 6 2 18 -23 79 -32 79 -4 0 -13 17 -20 37 -11
34 -10 38 12 55 13 10 40 31 59 47 19 15 49 35 66 44 32 17 144 131 144 148 0
5 7 9 15 9 9 0 17 14 21 39 5 32 10 38 25 34 16 -5 19 0 19 34 0 41 14 65 35
57 7 -3 14 5 17 20 3 14 2 26 -1 26 -14 0 13 294 29 315 4 6 10 35 13 65 3 30
10 89 16 130 5 41 12 120 15 174 4 55 8 101 10 104 3 2 1 15 -4 28 -5 13 -11
97 -14 186 -2 90 -9 174 -14 188 -5 14 -13 41 -17 60 -4 19 -17 53 -28 75 -12
22 -20 45 -19 52 2 7 -6 29 -16 50 -11 21 -34 81 -51 132 -31 91 -64 159 -103
210 -28 36 -34 88 -13 111 14 16 15 23 6 34 -7 8 -19 12 -26 10 -8 -4 -43 22
-84 63 -74 73 -141 112 -266 156 -38 13 -86 30 -105 37 -19 7 -60 16 -90 21
-30 5 -86 16 -125 24 -112 26 -290 42 -423 38 -105 -3 -123 -2 -128 12 -5 13
-24 16 -111 14 -85 -1 -107 2 -122 15 -18 16 -20 16 -32 -2z m121 -92 c0 -5
-9 -10 -21 -10 -11 0 -17 5 -14 10 3 6 13 10 21 10 8 0 14 -4 14 -10z m210
-15 c-32 -18 -37 -18 -44 0 -4 12 3 15 32 15 l37 -1 -25 -14z m73 4 c-8 -8
-16 -8 -30 0 -16 9 -14 10 12 11 21 0 26 -3 18 -11z m122 1 c-3 -5 -17 -10
-31 -10 -14 0 -22 4 -19 10 3 6 17 10 31 10 14 0 22 -4 19 -10z m62 4 c-3 -3
-12 -4 -19 -1 -8 3 -5 6 6 6 11 1 17 -2 13 -5z m163 -23 c0 -14 -23 -19 -43
-9 -9 5 -23 6 -29 2 -7 -4 -8 -3 -4 4 8 14 76 16 76 3z m152 -43 c-10 -10 -44
0 -37 12 3 5 14 6 26 3 12 -3 17 -9 11 -15z m-1492 -42 c0 -2 -7 -7 -16 -10
-8 -3 -12 -2 -9 4 6 10 25 14 25 6z m1595 -17 c11 -17 -1 -21 -15 -4 -8 9 -8
15 -2 15 6 0 14 -5 17 -11z m295 -48 c19 -5 21 -8 9 -13 -8 -3 -26 0 -40 8
-25 14 -11 17 31 5z m-1615 -29 c-6 -7 -45 9 -45 18 0 4 11 3 24 -3 14 -7 23
-13 21 -15z m1715 -62 c0 -5 -5 -10 -11 -10 -5 0 -7 5 -4 10 3 6 8 10 11 10 2
0 4 -4 4 -10z m-1740 -50 c0 -5 -4 -10 -10 -10 -5 0 -10 5 -10 10 0 6 5 10 10
10 6 0 10 -4 10 -10z m52 -70 c14 -16 23 -32 19 -35 -3 -4 2 -11 12 -16 9 -6
17 -19 17 -29 0 -11 4 -20 9 -20 5 0 4 -11 -2 -24 -12 -25 -33 -25 -23 0 8 21
-9 59 -40 87 -16 15 -24 31 -21 40 3 9 1 18 -6 21 -7 2 -7 5 -2 5 6 1 22 -12
37 -29z m122 -1 c-8 -14 -31 -11 -31 5 0 8 8 11 19 8 10 -2 15 -8 12 -13z
m1411 2 c3 -5 1 -13 -5 -16 -8 -5 -8 -11 0 -20 8 -10 20 -11 43 -4 47 13 67
11 74 -8 17 -48 67 -143 99 -188 59 -84 160 -298 166 -354 2 -19 -4 -26 -32
-36 -87 -31 -92 -30 -134 24 -22 27 -50 54 -63 60 -28 13 -29 25 -3 51 11 11
16 20 10 20 -5 0 -7 7 -4 15 5 11 -3 17 -25 21 -17 4 -34 11 -37 15 -3 5 -18
9 -34 9 -15 0 -30 5 -32 10 -3 10 -42 13 -118 10 -25 -1 -30 -4 -20 -10 11 -7
9 -10 -11 -10 -15 0 -32 -7 -39 -15 -7 -8 -17 -15 -22 -15 -6 0 -22 -8 -36
-19 -15 -10 -45 -21 -66 -25 -22 -4 -49 -14 -60 -21 -13 -10 -25 -11 -37 -4
-10 5 -22 8 -26 7 -13 -3 -73 12 -135 33 -57 20 -58 20 -102 0 -59 -26 -74
-70 -46 -139 19 -50 18 -50 103 -39 47 6 49 -5 17 -83 -17 -41 -32 -75 -34
-78 -2 -2 -19 4 -38 14 -60 31 -94 34 -156 12 -31 -11 -66 -26 -78 -33 -20
-13 -24 -10 -55 33 -54 75 -55 74 17 133 65 54 72 63 54 74 -5 3 -10 19 -10
34 0 15 -9 38 -20 51 l-19 22 -82 -16 c-44 -9 -101 -28 -125 -42 -34 -20 -53
-25 -82 -21 -71 11 -107 20 -119 29 -30 24 -188 -13 -223 -52 -3 -3 -22 -18
-43 -33 -45 -34 -100 -118 -87 -131 6 -6 15 -4 25 4 22 18 30 5 13 -22 -8 -13
-20 -40 -27 -60 -14 -43 -28 -57 -67 -62 -85 -13 -110 -20 -121 -33 -8 -11
-21 -13 -40 -9 -15 4 -40 10 -54 13 -32 6 -39 31 -39 142 0 99 11 117 68 107
35 -5 43 -3 52 13 5 11 22 21 37 23 23 2 29 8 31 36 2 18 -6 51 -16 75 -35 75
-47 127 -35 147 7 10 9 27 6 39 -3 11 -2 32 1 46 5 19 13 25 34 25 37 0 56 14
48 35 -3 9 -3 22 1 28 8 13 10 19 12 42 2 23 21 18 21 -5 0 -13 7 -20 20 -20
12 0 20 7 20 16 0 12 6 15 24 10 15 -4 26 -1 29 7 2 6 7 9 11 6 4 -4 0 -14 -9
-22 -14 -14 -4 -16 97 -19 62 -2 121 1 131 5 11 5 31 4 48 -2 16 -6 39 -7 51
-2 18 7 15 9 -20 15 -23 3 -42 11 -42 16 0 13 7 13 31 -1 11 -6 39 -12 62 -14
23 -2 71 -8 107 -14 36 -5 132 -10 213 -10 122 1 148 3 143 15 -3 7 -1 16 4
19 9 6 14 -9 11 -29 -1 -5 8 -6 21 -2 13 3 39 6 60 6 29 0 36 4 34 17 -2 10
-13 20 -26 23 -21 5 -18 7 19 20 41 13 44 13 61 -8 10 -12 23 -22 30 -22 6 0
8 -4 5 -10 -3 -5 3 -10 14 -10 11 0 23 5 26 10 3 6 17 10 30 10 40 0 57 10 44
26 -17 20 8 19 28 -2 14 -13 14 -17 2 -25 -10 -6 -2 -9 25 -9 22 0 36 3 33 7
-4 3 -2 12 4 19 7 9 7 19 -1 34 -22 42 19 83 47 48 12 -16 13 -48 1 -48 -10 0
-10 -11 1 -29 10 -15 91 -6 91 11 0 15 22 33 60 48 47 18 62 31 56 46 -3 8 6
14 27 17 62 8 96 7 102 -2z m205 -1 c0 -5 -2 -10 -4 -10 -3 0 -8 5 -11 10 -3
6 -1 10 4 10 6 0 11 -4 11 -10z m-2170 -40 c0 -5 -4 -10 -10 -10 -5 0 -10 5
-10 10 0 6 5 10 10 10 6 0 10 -4 10 -10z m400 -10 c0 -5 -2 -10 -4 -10 -3 0
-8 5 -11 10 -3 6 -1 10 4 10 6 0 11 -4 11 -10z m355 -30 c-3 -5 -13 -10 -21
-10 -8 0 -14 5 -14 10 0 6 9 10 21 10 11 0 17 -4 14 -10z m525 -9 c0 -9 -24
-21 -41 -21 -16 0 -10 18 9 23 28 8 32 7 32 -2z m-837 -68 c-7 -2 -19 -2 -25
0 -7 3 -2 5 12 5 14 0 19 -2 13 -5z m-558 -153 c3 -5 1 -10 -4 -10 -6 0 -11 5
-11 10 0 6 2 10 4 10 3 0 8 -4 11 -10z m-105 -90 c0 -5 -5 -10 -11 -10 -5 0
-7 5 -4 10 3 6 8 10 11 10 2 0 4 -4 4 -10z m2282 -151 c26 -14 67 -60 68 -75
0 -6 7 -17 16 -24 22 -19 45 -80 38 -102 -3 -10 -1 -24 4 -31 5 -7 12 -45 15
-85 5 -59 2 -83 -14 -123 -10 -27 -19 -63 -19 -79 0 -17 -4 -30 -10 -30 -5 0
-20 -19 -32 -41 -13 -23 -29 -52 -36 -65 -32 -58 -159 -134 -224 -134 -98 0
-256 99 -279 175 -7 22 -17 47 -23 55 -22 30 -46 79 -46 93 0 9 -5 17 -11 19
-18 6 -39 79 -39 135 0 29 8 75 19 102 10 28 16 52 13 56 -3 3 1 16 8 30 11
21 20 25 61 25 26 0 50 4 53 9 3 4 21 7 41 5 19 -1 35 2 35 7 0 5 15 9 34 9
19 0 37 4 40 9 3 5 22 12 41 15 19 4 59 18 87 31 57 27 126 32 160 14z m-317
-49 c-3 -5 -11 -10 -16 -10 -6 0 -7 5 -4 10 3 6 11 10 16 10 6 0 7 -4 4 -10z
m-2105 -26 c0 -8 -5 -12 -10 -9 -6 4 -8 11 -5 16 9 14 15 11 15 -7z m40 -44
c0 -5 -2 -10 -4 -10 -3 0 -8 5 -11 10 -3 6 -1 10 4 10 6 0 11 -4 11 -10z m965
-20 c38 -16 63 -19 138 -16 51 2 107 7 124 11 31 7 34 5 48 -28 8 -20 19 -38
24 -41 15 -9 52 -96 45 -107 -3 -5 6 -19 21 -30 22 -18 25 -28 24 -68 -2 -25
-9 -62 -17 -81 -8 -19 -14 -52 -14 -74 1 -68 -61 -155 -156 -220 -42 -28 -44
-29 -138 -23 -77 5 -107 12 -158 36 -74 36 -84 46 -131 136 -21 39 -42 76 -48
83 -6 7 -10 35 -9 63 0 27 -3 49 -7 49 -13 0 -5 101 12 145 8 22 25 59 36 82
12 23 21 48 21 54 0 7 7 21 17 31 22 25 107 24 168 -2z m-855 -10 c0 -5 -4
-10 -10 -10 -5 0 -10 5 -10 10 0 6 5 10 10 10 6 0 10 -4 10 -10z m2592 -61 c5
-24 12 -98 17 -164 11 -141 -1 -235 -49 -390 -17 -55 -34 -120 -37 -145 -3
-25 -12 -56 -19 -70 -7 -14 -16 -47 -20 -75 -4 -27 -8 -53 -10 -57 -1 -5 -2
-10 -3 -13 0 -3 -10 4 -21 15 -22 22 -40 26 -40 9 0 -14 -64 -170 -91 -220
-10 -20 -19 -43 -19 -50 -1 -20 -97 -112 -110 -104 -5 3 -10 -2 -10 -12 -1
-10 -19 -31 -41 -48 -22 -16 -45 -34 -52 -40 -42 -35 -88 -64 -132 -84 -27
-13 -54 -29 -60 -36 -14 -18 -55 -29 -55 -16 0 19 -39 12 -60 -11 -20 -22 -28
-23 -138 -20 -77 2 -127 8 -146 17 -16 8 -35 15 -43 15 -8 0 -29 11 -48 25
-29 23 -39 25 -85 19 -37 -5 -61 -15 -83 -36 -28 -25 -32 -35 -32 -78 0 -42 5
-54 35 -85 19 -20 56 -47 83 -60 42 -21 62 -23 188 -24 121 0 143 -3 154 -17
12 -17 41 -11 30 6 -7 11 20 20 61 20 19 0 34 5 34 10 0 6 15 8 38 4 31 -5 40
-2 59 20 13 14 31 26 40 27 10 0 39 4 65 8 26 4 46 5 45 2 -2 -10 63 -127 83
-149 20 -21 15 -37 -17 -55 -38 -22 -141 -96 -145 -105 -5 -12 -77 -52 -96
-52 -9 0 -28 -9 -42 -20 -14 -11 -31 -20 -39 -20 -7 0 -30 -8 -50 -19 -97 -49
-264 -80 -436 -80 -180 0 -216 5 -294 38 -67 30 -169 97 -170 113 -1 4 -26 31
-56 62 -31 31 -55 64 -55 75 0 12 -6 21 -12 21 -9 0 -10 2 -2 8 7 4 14 46 17
94 3 48 8 91 11 97 4 5 22 7 41 4 46 -7 118 13 133 38 14 22 5 37 -69 121 -36
41 -36 41 -125 48 -85 6 -92 9 -159 54 -88 60 -145 110 -145 129 0 8 -9 17
-20 20 -22 6 -100 123 -100 152 0 17 -2 18 -10 5 -8 -11 -9 -8 -4 12 4 20 1
29 -15 38 -12 6 -19 15 -16 20 3 4 0 10 -6 12 -11 4 -28 73 -29 119 0 20 6 28
25 33 35 9 35 52 0 68 -26 12 -33 28 -12 28 8 1 7 5 -4 13 -28 21 -53 363 -29
392 6 8 9 19 5 25 -3 5 -1 10 5 10 8 0 10 13 7 37 -3 20 -3 42 0 48 5 15 105
19 152 5 23 -6 33 -6 37 4 2 6 20 13 40 14 35 3 35 2 29 -32 -11 -57 12 -139
53 -190 20 -25 43 -46 50 -46 6 0 12 -4 12 -9 0 -16 133 -105 190 -128 30 -12
105 -28 165 -37 103 -14 115 -14 195 3 78 17 88 22 123 62 53 60 95 157 111
257 12 76 12 88 -4 130 -16 43 -17 49 -3 73 22 37 98 56 139 34 16 -8 34 -15
39 -15 6 0 17 -33 26 -73 l14 -74 -48 1 c-27 1 -51 -2 -54 -7 -10 -16 25 -52
73 -77 27 -14 54 -36 60 -48 7 -13 17 -29 23 -35 20 -20 13 -82 -12 -109 -44
-47 -68 -57 -139 -55 -38 0 -68 -2 -68 -6 0 -4 0 -11 0 -15 0 -11 56 -37 99
-47 18 -4 58 -4 90 0 51 6 61 12 109 61 43 44 56 53 67 44 23 -19 86 -50 145
-72 63 -23 234 -33 312 -18 72 14 170 92 152 121 -4 7 -1 10 7 7 8 -3 29 15
50 41 29 36 39 60 47 111 5 36 8 76 5 90 -2 14 -4 50 -4 80 0 30 -5 79 -10
108 -9 46 -8 56 7 73 9 10 23 19 31 19 7 0 13 4 13 9 0 10 28 20 45 16 5 -1
13 -21 17 -46z m-2896 -126 c-14 -14 -23 4 -13 27 l10 25 5 -23 c2 -13 1 -26
-2 -29z m211 -118 c3 -9 3 -19 -1 -22 -8 -9 -37 18 -30 28 8 14 24 11 31 -6z
m2760 -17 c-3 -8 -6 -5 -6 6 -1 11 2 17 5 13 3 -3 4 -12 1 -19z m-242 -17 c3
-5 1 -12 -5 -16 -5 -3 -10 1 -10 9 0 18 6 21 15 7z m38 -109 c-6 -24 -23 -30
-23 -9 0 13 21 39 26 34 2 -2 1 -13 -3 -25z m-2740 -19 c-3 -7 -6 -13 -8 -13
-2 0 -5 6 -8 13 -3 8 1 14 8 14 7 0 11 -6 8 -14z m2717 -23 c0 -5 -7 -10 -16
-10 -8 0 -12 5 -9 10 3 6 10 10 16 10 5 0 9 -4 9 -10z m-40 -30 c0 -5 -2 -10
-4 -10 -3 0 -8 5 -11 10 -3 6 -1 10 4 10 6 0 11 -4 11 -10z m-2433 -65 c28 -8
64 -15 79 -15 50 0 93 -22 98 -49 21 -116 26 -111 -68 -80 -71 22 -176 23
-184 2 -2 -7 3 -13 12 -13 17 0 155 -91 223 -148 30 -25 42 -44 45 -68 2 -19
-1 -34 -7 -35 -139 -12 -171 -6 -295 48 -61 27 -126 88 -122 116 2 10 -3 17
-12 17 -21 0 -20 16 1 24 13 5 14 9 5 15 -8 5 -5 20 14 54 13 26 22 52 19 57
-4 6 1 13 9 16 26 10 18 27 -9 22 -33 -7 -39 5 -15 27 49 45 81 46 207 10z
m2343 -34 c0 -5 -7 -11 -15 -15 -15 -5 -20 5 -8 17 9 10 23 9 23 -2z m46 -708
c-7 -7 -26 7 -26 19 0 6 6 6 15 -2 9 -7 13 -15 11 -17z m-49 -45 c-3 -8 -6 -5
-6 6 -1 11 2 17 5 13 3 -3 4 -12 1 -19z m-53 -62 c-5 -14 -9 -15 -15 -5 -5 8
-3 17 4 21 15 9 19 4 11 -16z m-837 -198 c-3 -8 -6 -5 -6 6 -1 11 2 17 5 13 3
-3 4 -12 1 -19z m1223 -211 c0 -7 -13 -23 -29 -35 -29 -21 -30 -21 -36 -3 -3
11 -12 25 -20 31 -12 10 -15 9 -15 -9 0 -12 5 -19 10 -16 6 3 10 1 10 -4 0
-16 -11 -14 -32 6 -10 9 -18 12 -18 6 0 -17 -28 -10 -33 9 -3 10 -1 16 4 12 5
-3 9 0 9 5 0 7 29 11 75 11 55 0 75 -3 75 -13z m-192 -5 c14 12 14 11 2 -9 -8
-11 -20 -19 -27 -16 -7 3 -13 0 -13 -6 0 -6 4 -11 10 -11 5 0 7 -7 4 -15 -9
-23 -23 -18 -30 10 -7 30 -23 34 -21 5 1 -11 5 -20 9 -20 4 0 8 -7 8 -16 0 -9
5 -12 12 -8 8 5 9 2 5 -9 -3 -9 -2 -19 3 -22 15 -9 12 -27 -2 -23 -7 3 -23 24
-36 49 -12 24 -21 34 -18 22 2 -15 0 -20 -10 -16 -7 2 -10 11 -7 19 3 9 0 14
-8 12 -7 -2 -15 5 -17 15 -2 11 3 17 15 17 10 0 36 7 58 14 24 9 41 10 43 5 2
-6 11 -4 20 3z m254 -33 c5 -33 1 -38 -10 -9 -5 15 -11 17 -22 9 -11 -8 -12
-12 -3 -15 7 -3 9 -12 6 -21 -4 -11 -2 -14 5 -9 7 4 12 1 12 -8 0 -9 7 -16 15
-16 9 0 12 -6 8 -15 -4 -13 -11 -10 -31 14 -13 17 -28 28 -33 25 -5 -3 -9 0
-9 7 0 7 -7 4 -15 -7 -21 -28 -18 -8 6 41 17 34 25 41 44 37 16 -3 24 -12 27
-33z m-238 -4 c-4 -8 -10 -15 -15 -15 -4 0 -6 7 -3 15 4 8 10 15 15 15 4 0 6
-7 3 -15z m296 0 c7 -8 16 -13 19 -10 4 2 24 -1 45 -7 27 -9 35 -16 31 -27 -5
-13 -4 -14 6 -3 7 6 17 12 23 12 5 0 7 -3 4 -6 -8 -7 28 -44 42 -44 15 0 12
-8 -10 -33 -11 -12 -19 -26 -16 -33 2 -6 -3 -10 -12 -9 -38 5 -62 18 -61 34 0
10 2 11 6 4 7 -20 43 -16 43 5 0 14 -2 15 -9 3 -8 -12 -11 -9 -16 12 -4 15
-11 27 -15 27 -4 0 -10 9 -13 20 -3 11 -13 20 -22 20 -9 0 -13 5 -9 11 4 8 0
9 -15 4 -12 -4 -21 -2 -21 4 0 6 -7 11 -15 11 -8 0 -15 5 -15 10 0 15 16 12
30 -5z m-255 -25 c-4 -12 -2 -20 5 -20 6 0 8 -4 5 -10 -3 -5 -1 -19 5 -30 8
-16 7 -23 -10 -37 -26 -23 -25 -31 5 -43 14 -5 25 -17 25 -25 0 -9 -4 -13 -10
-10 -5 3 -10 1 -10 -4 0 -6 6 -11 14 -11 8 0 13 -9 13 -22 -1 -13 2 -35 6 -50
5 -21 4 -28 -6 -28 -10 0 -13 8 -9 25 3 21 0 25 -18 25 -13 0 -24 8 -27 20 -3
11 -12 20 -20 20 -9 0 -13 -6 -9 -15 3 -9 0 -15 -10 -15 -12 0 -13 -4 -3 -22
11 -21 12 -21 27 -2 12 16 14 16 9 2 -4 -10 -2 -18 3 -18 5 0 6 -16 3 -37 -4
-24 -3 -34 5 -30 5 4 8 17 4 29 -3 14 -2 19 6 14 7 -4 12 -18 12 -31 0 -20 -4
-23 -27 -19 -45 8 -51 11 -68 46 -14 28 -14 30 0 14 8 -11 15 -24 15 -29 0 -4
5 -5 10 -2 6 3 10 1 10 -5 0 -6 5 -8 12 -4 8 5 6 11 -5 19 -10 7 -17 15 -17
19 0 4 -7 14 -15 22 -17 18 -20 44 -4 44 5 0 7 5 3 11 -4 8 -9 7 -15 -2 -12
-19 -19 -7 -12 20 4 17 8 19 14 9 7 -10 9 -9 9 5 0 9 5 17 12 17 7 0 6 5 -4
13 -16 12 -33 61 -18 52 5 -3 10 1 13 7 3 10 7 10 20 -1 14 -11 17 -11 18 0 0
11 2 11 6 1 4 -10 8 -10 19 -1 8 6 14 17 14 23 0 6 -5 4 -10 -4 -6 -9 -10 -11
-10 -3 0 7 -7 10 -15 7 -8 -4 -16 -2 -16 2 -6 40 -4 55 7 65 11 9 14 7 15 -7
0 -16 2 -16 11 4 14 27 22 29 13 2z m-68 -31 c0 -24 -2 -27 -10 -14 -5 9 -6
23 -3 31 8 22 13 17 13 -17z m100 -1 c-3 -8 -6 -5 -6 6 -1 11 2 17 5 13 3 -3
4 -12 1 -19z m53 7 c0 -8 -2 -15 -4 -15 -2 0 -6 7 -10 15 -3 8 -1 15 4 15 6 0
10 -7 10 -15z m152 -7 c-7 -7 -12 -8 -12 -2 0 14 12 26 19 19 2 -3 -1 -11 -7
-17z m-446 -28 c8 0 17 7 21 16 9 25 23 -6 16 -36 -4 -17 -2 -22 5 -15 6 6 12
21 14 35 4 23 5 23 13 6 5 -11 17 -28 28 -39 12 -12 16 -25 11 -35 -4 -9 -9
-32 -12 -50 -3 -25 -8 -32 -20 -27 -8 3 -23 -2 -32 -10 -10 -9 -20 -13 -23 -8
-8 13 20 46 32 38 7 -3 11 3 11 16 0 16 -5 20 -19 16 -15 -3 -18 -1 -14 11 4
9 2 13 -4 9 -6 -4 -13 6 -17 23 -3 17 -11 29 -18 28 -8 -2 -14 10 -15 32 0 19
1 25 4 13 2 -13 11 -23 19 -23z m519 30 c4 -6 2 -17 -4 -24 -6 -7 -9 -15 -6
-18 3 -2 -2 -5 -10 -5 -13 0 -13 3 2 19 14 16 15 18 0 18 -9 0 -19 5 -22 10
-3 6 3 10 14 10 11 0 23 -5 26 -10z m-585 -14 c0 -3 -4 -8 -10 -11 -5 -3 -10
-1 -10 4 0 6 5 11 10 11 6 0 10 -2 10 -4z m369 -23 c2 -1 -5 -10 -15 -20 -16
-16 -17 -16 -11 -1 3 10 2 20 -3 23 -6 4 -10 11 -10 17 0 6 7 5 18 -3 9 -7 19
-14 21 -16z m-429 -39 c0 -7 8 -21 18 -30 16 -17 16 -18 0 -11 -10 3 -28 3
-40 -2 -13 -5 -27 -4 -33 2 -13 13 -7 60 6 51 5 -3 12 2 15 11 5 12 9 13 20 4
8 -6 14 -17 14 -25z m70 24 c0 -4 -7 -8 -15 -8 -8 0 -15 4 -15 8 0 5 7 9 15 9
8 0 15 -4 15 -9z m742 -13 c9 2 31 -8 49 -21 18 -13 37 -25 43 -27 7 -2 7 -12
-2 -32 -11 -24 -15 -26 -23 -14 -8 10 -9 6 -4 -15 5 -26 4 -28 -9 -17 -9 8
-16 20 -16 28 0 8 -4 11 -10 8 -5 -3 -10 -1 -10 4 0 6 6 11 14 11 18 0 14 33
-5 38 -12 3 -12 2 0 -6 11 -8 9 -11 -8 -17 -12 -3 -19 -10 -16 -15 8 -12 -6
-41 -16 -34 -5 3 -9 10 -9 15 0 6 4 8 8 5 5 -3 9 13 10 34 1 22 -2 40 -8 40
-5 0 -7 -6 -5 -12 9 -24 -11 -41 -31 -29 -15 8 -16 11 -4 12 8 1 18 1 22 0 4
0 5 14 2 32 -3 18 -2 27 3 21 4 -6 16 -10 25 -9z m-330 -39 c-3 -6 -7 -5 -10
2 -2 7 -8 12 -13 12 -4 0 -6 -6 -3 -14 3 -8 0 -17 -7 -22 -8 -4 -10 -3 -5 4 4
7 2 12 -3 12 -6 0 -11 -4 -11 -9 0 -17 20 -23 35 -11 16 14 18 10 9 -14 -3 -9
-12 -16 -20 -16 -7 0 -18 -10 -24 -22 -11 -22 -10 -22 4 -4 9 11 16 16 16 12
0 -5 6 -3 14 3 12 10 17 8 25 -7 12 -23 3 -36 -16 -21 -10 9 -13 8 -13 -5 0
-9 7 -16 15 -16 21 0 19 -20 -2 -21 -11 0 -13 -3 -5 -6 6 -2 12 -9 12 -14 0
-4 -7 -6 -15 -3 -17 7 -21 -11 -5 -21 15 -9 12 -25 -5 -25 -13 0 -14 -4 -4
-22 10 -19 14 -61 10 -105 0 -7 -8 -13 -16 -13 -8 0 -15 6 -15 13 0 8 -4 7
-10 -3 -7 -11 -10 1 -9 40 0 30 3 49 6 43 6 -16 33 -17 33 -1 0 6 -3 9 -6 5
-14 -14 -44 29 -44 65 0 31 4 38 20 38 11 0 20 4 20 9 0 5 -7 8 -16 7 -22 -1
-27 33 -9 60 17 26 9 68 -12 60 -15 -6 -10 7 14 36 13 15 17 15 43 0 16 -9 26
-21 22 -26z m73 35 c3 -5 1 -12 -4 -15 -5 -3 -11 1 -15 9 -6 16 9 21 19 6z
m88 -5 c4 -10 1 -13 -9 -9 -7 3 -14 9 -14 14 0 14 17 10 23 -5z m-533 -27 c12
-16 20 -32 17 -35 -2 -3 -14 11 -25 31 -26 43 -21 46 8 4z m655 11 c3 -5 1
-10 -4 -10 -6 0 -11 5 -11 10 0 6 2 10 4 10 3 0 8 -4 11 -10z m-2575 -10 c0
-5 -5 -10 -11 -10 -5 0 -7 5 -4 10 3 6 8 10 11 10 2 0 4 -4 4 -10z m1880 -6
c0 -8 -4 -12 -10 -9 -5 3 -10 10 -10 16 0 5 5 9 10 9 6 0 10 -7 10 -16z m310
6 c0 -5 -2 -10 -4 -10 -3 0 -8 5 -11 10 -3 6 -1 10 4 10 6 0 11 -4 11 -10z
m-1817 -21 c4 -16 3 -18 -9 -8 -7 6 -11 15 -8 20 8 13 11 11 17 -12z m2012 11
c3 -5 1 -10 -4 -10 -6 0 -11 5 -11 10 0 6 2 10 4 10 3 0 8 -4 11 -10z m-2361
-14 c-3 -8 -12 -12 -21 -9 -12 5 -12 7 -1 14 20 13 28 11 22 -5z m2316 -3 c0
-6 -4 -14 -9 -17 -5 -3 -8 -14 -6 -24 1 -9 0 -11 -2 -4 -3 6 -9 12 -14 12 -5
0 -9 5 -9 11 0 5 4 8 9 4 5 -3 12 -1 16 5 3 5 -1 10 -9 10 -9 0 -16 4 -16 9 0
6 9 9 20 8 11 -1 20 -7 20 -14z m17 -5 c-3 -8 -6 -5 -6 6 -1 11 2 17 5 13 3
-3 4 -12 1 -19z m88 12 c3 -5 1 -10 -4 -10 -6 0 -11 5 -11 10 0 6 2 10 4 10 3
0 8 -4 11 -10z m39 4 c11 -4 13 -11 5 -30 -6 -17 -6 -23 1 -19 6 3 10 2 10 -4
0 -16 -20 -24 -24 -9 -9 29 -16 68 -12 68 2 0 11 -3 20 -6z m-797 -31 c-3 -19
-10 -28 -21 -27 -9 1 -16 -2 -16 -7 0 -5 -9 -9 -20 -9 -24 0 -26 13 -4 31 13
11 51 34 62 38 1 1 1 -11 -1 -26z m221 -3 c-1 -16 -6 -30 -11 -30 -5 0 -6 7
-3 16 3 9 6 22 6 30 0 8 2 14 5 14 3 0 4 -13 3 -30z m-104 8 c-6 -10 -4 -10 7
0 20 19 31 14 19 -8 -7 -12 -16 -18 -23 -13 -7 4 -6 0 2 -10 19 -24 8 -31 -13
-9 -16 19 -13 52 6 52 5 0 6 -6 2 -12z m606 2 c0 -5 -2 -10 -4 -10 -3 0 -8 5
-11 10 -3 6 -1 10 4 10 6 0 11 -4 11 -10z m-697 -15 c-3 -9 -8 -14 -10 -11 -3
3 -2 9 2 15 9 16 15 13 8 -4z m877 -12 c0 -13 -7 -26 -15 -29 -26 -10 -18 -32
10 -26 15 2 25 0 25 -7 0 -6 4 -11 10 -11 5 0 7 7 3 16 -5 14 -3 15 15 5 13
-7 22 -8 22 -2 0 5 -6 11 -12 14 -7 2 -10 8 -6 12 10 10 40 -14 32 -26 -3 -5
1 -9 9 -9 17 0 30 27 20 42 -3 7 -1 8 5 4 7 -4 12 -1 12 9 0 15 2 15 15 1 18
-18 20 -37 3 -34 -9 2 -12 -7 -11 -27 1 -16 -1 -25 -5 -20 -4 6 -14 9 -22 9
-8 -1 -21 -2 -27 -3 -25 -2 -12 -17 14 -16 18 0 29 -6 31 -17 2 -13 -3 -18
-17 -18 -25 0 -25 -1 -7 -44 13 -32 13 -33 -5 -29 -16 5 -18 1 -13 -26 5 -24
3 -31 -9 -31 -9 0 -19 4 -22 10 -4 6 1 7 11 3 11 -4 15 -2 13 6 -3 7 -7 11
-11 9 -3 -2 -15 5 -26 15 -12 11 -22 14 -26 8 -4 -5 -2 -12 4 -16 11 -7 4 -25
-9 -25 -11 0 -6 42 8 67 5 11 7 23 4 27 -3 3 -1 6 6 6 8 0 11 -8 8 -19 -4 -16
1 -19 28 -19 l33 0 -13 39 c-8 22 -19 47 -24 57 -10 16 -10 16 -11 0 0 -10 -5
-18 -11 -18 -6 0 -9 6 -6 14 4 9 0 13 -11 11 -9 -2 -21 -4 -27 -4 -5 -1 -4 -6
3 -13 17 -17 15 -28 -5 -21 -11 4 -14 3 -9 -5 4 -7 2 -12 -4 -12 -6 0 -11 10
-10 23 3 36 1 47 -11 47 -6 0 -9 -7 -5 -15 3 -8 1 -15 -4 -15 -6 0 -11 5 -11
10 -3 20 -4 25 -12 38 -6 8 -2 12 12 12 12 0 21 5 21 11 0 5 -4 8 -9 4 -5 -3
-13 0 -17 6 -5 8 -3 9 6 4 10 -6 12 -4 7 8 -8 21 0 22 21 1 13 -13 17 -14 21
-3 2 7 -1 15 -7 17 -17 5 -15 19 3 19 9 0 15 -10 15 -24z m-2423 -15 c-3 -8
-6 -5 -6 6 -1 11 2 17 5 13 3 -3 4 -12 1 -19z m-237 2 c0 -5 -4 -10 -10 -10
-5 0 -10 5 -10 10 0 6 5 10 10 10 6 0 10 -4 10 -10z m1689 -30 c12 0 2 -32
-13 -42 -7 -5 -4 -8 7 -8 15 0 16 -3 5 -22 -7 -12 -21 -31 -30 -42 -17 -19
-16 -36 3 -36 6 0 8 4 5 9 -3 5 1 11 9 15 9 3 15 0 15 -8 0 -8 6 -16 13 -19 6
-2 -4 -3 -23 -2 -19 1 -41 -3 -48 -9 -15 -11 -32 7 -31 34 0 9 4 7 12 -7 l13
-23 11 30 c9 25 9 30 -3 30 -8 0 -14 8 -13 18 0 9 3 12 5 5 6 -14 34 -6 34 9
0 17 -41 47 -56 41 -8 -3 -14 0 -14 7 0 6 9 14 20 17 11 3 20 11 20 18 0 21
34 23 42 3 4 -10 12 -18 17 -18z m121 20 c0 -5 -6 -10 -14 -10 -8 0 -18 5 -21
10 -3 6 3 10 14 10 12 0 21 -4 21 -10z m-1840 -13 c0 -14 -39 -41 -48 -33 -3
3 0 6 6 6 6 0 14 9 17 20 7 22 25 27 25 7z m55 -12 c0 -14 -5 -25 -11 -25 -7
0 -9 10 -6 25 2 14 7 25 11 25 3 0 6 -11 6 -25z m147 -7 c-8 -8 -9 -4 -5 13 4
13 8 18 11 10 2 -7 -1 -18 -6 -23z m2678 22 c0 -5 -2 -10 -4 -10 -3 0 -8 5
-11 10 -3 6 -1 10 4 10 6 0 11 -4 11 -10z m-763 -43 c0 -22 -12 -10 -22 23 -7
21 -6 22 7 9 8 -8 15 -22 15 -32z m-337 12 c0 -5 -7 -9 -15 -9 -8 0 -15 7 -15
15 0 9 6 12 15 9 8 -4 15 -10 15 -15z m170 -3 c0 -6 -9 -12 -19 -12 -11 0 -17
4 -15 8 3 4 -1 8 -8 8 -10 0 -10 2 1 9 17 11 41 3 41 -13z m30 3 c0 -6 -4 -7
-10 -4 -5 3 -10 11 -10 16 0 6 5 7 10 4 6 -3 10 -11 10 -16z m601 -12 c-15
-15 -14 -30 3 -24 13 5 36 -10 36 -24 0 -4 -9 -9 -20 -12 -24 -6 -53 33 -40
53 5 9 4 20 -3 29 -10 12 -9 13 12 2 17 -9 20 -16 12 -24z m324 23 c-3 -5 -1
-10 5 -10 6 0 22 -12 35 -26 14 -15 25 -23 25 -18 0 4 5 3 12 -4 8 -8 9 -15 2
-22 -11 -11 -31 5 -59 45 -12 19 -13 18 -8 -6 3 -17 0 -26 -9 -26 -8 0 -14 14
-15 39 0 21 3 38 9 38 5 0 6 -4 3 -10z m-2770 -10 c-3 -5 -12 -10 -18 -10 -7
0 -6 4 3 10 19 12 23 12 15 0z m1708 -2 c-19 -24 -21 -67 -4 -70 11 -2 12 -6
4 -11 -6 -4 -18 0 -27 9 -17 17 -41 10 -29 -9 4 -7 -4 -5 -17 4 -30 20 -33 52
-5 57 15 2 17 1 6 -6 -22 -16 3 -21 29 -6 15 8 19 13 10 14 -9 0 -5 6 10 14
32 18 34 18 23 4z m1020 -3 c-3 -9 -8 -14 -10 -11 -3 3 -2 9 2 15 9 16 15 13
8 -4z m-770 -26 c3 -10 1 -19 -4 -19 -4 0 -6 -7 -3 -15 4 -8 1 -15 -5 -15 -6
0 -11 6 -11 14 0 8 -4 16 -10 18 -5 2 -7 13 -4 25 7 25 30 21 37 -8z m-2093 0
c0 -6 -4 -7 -10 -4 -5 3 -10 11 -10 16 0 6 5 7 10 4 6 -3 10 -11 10 -16z
m1880 17 c0 -2 -7 -7 -16 -10 -8 -3 -12 -2 -9 4 6 10 25 14 25 6z m-1940 -10
c0 -3 -4 -8 -10 -11 -5 -3 -10 -1 -10 4 0 6 5 11 10 11 6 0 10 -2 10 -4z m258
-21 c-3 -3 -9 2 -12 12 -6 14 -5 15 5 6 7 -7 10 -15 7 -18z m289 3 c-3 -8 -6
-5 -6 6 -1 11 2 17 5 13 3 -3 4 -12 1 -19z m1490 0 c-3 -8 -6 -5 -6 6 -1 11 2
17 5 13 3 -3 4 -12 1 -19z m-432 2 c3 -5 1 -10 -4 -10 -6 0 -11 5 -11 10 0 6
2 10 4 10 3 0 8 -4 11 -10z m474 -30 c0 -10 -3 -8 -9 5 -12 27 -12 43 0 25 5
-8 9 -22 9 -30z m141 -4 c0 -6 -7 -2 -15 8 -8 11 -15 25 -15 30 0 6 7 2 15 -8
8 -11 15 -25 15 -30z m697 12 c-3 -8 -6 -5 -6 6 -1 11 2 17 5 13 3 -3 4 -12 1
-19z m-2957 -19 c-6 -10 -18 -22 -27 -27 -11 -6 -14 -18 -11 -36 3 -15 1 -29
-3 -32 -8 -5 -13 9 -10 28 0 4 -6 5 -14 2 -8 -4 -15 -15 -15 -25 0 -10 -7 -19
-15 -19 -8 0 -19 -9 -25 -19 -5 -11 -19 -22 -29 -26 -11 -3 -22 -14 -24 -23
-4 -13 -5 -13 -6 -2 0 8 29 46 66 84 37 38 68 74 68 80 0 18 29 44 42 39 9 -4
10 -10 3 -24z m2028 6 c-3 -3 -9 2 -12 12 -6 14 -5 15 5 6 7 -7 10 -15 7 -18z
m-1973 5 c3 -5 2 -10 -4 -10 -5 0 -13 5 -16 10 -3 6 -2 10 4 10 5 0 13 -4 16
-10z m52 -12 c-3 -8 -6 -5 -6 6 -1 11 2 17 5 13 3 -3 4 -12 1 -19z m83 13 c0
-5 -9 -7 -20 -4 -11 3 -20 7 -20 9 0 2 9 4 20 4 11 0 20 -4 20 -9z m180 -1 c0
-5 -4 -10 -10 -10 -5 0 -10 5 -10 10 0 6 5 10 10 10 6 0 10 -4 10 -10z m1255
0 c13 -6 15 -9 5 -9 -8 0 -22 4 -30 9 -18 12 -2 12 25 0z m1485 -24 c0 -8 -9
-16 -20 -19 -23 -6 -24 -3 -9 24 11 21 29 17 29 -5z m-3027 -1 c-3 -9 -8 -14
-10 -11 -3 3 -2 9 2 15 9 16 15 13 8 -4z m2875 8 c-10 -2 -18 -9 -18 -14 0 -6
-5 -7 -11 -3 -7 4 -10 1 -7 -7 3 -8 11 -13 18 -11 8 2 11 -5 7 -20 -5 -21 -5
-21 7 -5 14 18 32 24 21 7 -3 -5 -2 -10 2 -10 17 0 33 24 34 49 0 15 3 20 6
14 2 -7 10 -13 17 -13 12 0 36 -40 36 -60 0 -5 -8 -8 -19 -7 -15 1 -17 4 -8
19 9 13 8 21 0 29 -8 8 -16 4 -28 -15 -10 -14 -26 -26 -37 -26 -14 0 -18 -5
-14 -15 3 -8 1 -15 -4 -15 -6 0 -10 -8 -10 -17 0 -10 -4 -14 -8 -8 -4 6 -16
10 -27 10 -13 0 -21 8 -23 22 -2 17 1 21 11 17 18 -6 28 18 16 37 -18 28 -10
44 24 45 17 1 24 -1 15 -3z m-2348 -7 c0 -3 -4 -8 -10 -11 -5 -3 -10 -1 -10 4
0 6 5 11 10 11 6 0 10 -2 10 -4z m960 -8 c0 -4 -3 -8 -7 -9 -5 0 -16 -2 -25
-4 -17 -3 -24 6 -13 16 7 8 45 5 45 -3z m62 -10 c-7 -7 -12 -8 -12 -2 0 14 12
26 19 19 2 -3 -1 -11 -7 -17z m205 0 c-3 -8 -6 -5 -6 6 -1 11 2 17 5 13 3 -3
4 -12 1 -19z m863 7 c0 -8 -4 -15 -8 -15 -5 0 -9 7 -9 15 0 8 4 15 9 15 4 0 8
-7 8 -15z m100 5 c0 -5 -5 -10 -11 -10 -5 0 -7 -4 -4 -10 3 -6 -1 -7 -9 -4
-19 7 -21 20 -3 27 20 9 27 8 27 -3z m-2970 -10 c0 -5 -5 -10 -11 -10 -5 0 -7
5 -4 10 3 6 8 10 11 10 2 0 4 -4 4 -10z m370 6 c0 -3 -4 -8 -10 -11 -5 -3 -10
-1 -10 4 0 6 5 11 10 11 6 0 10 -2 10 -4z m1925 -23 c-6 -35 4 -85 16 -77 5 3
9 -5 9 -18 -1 -20 -3 -19 -23 13 -13 22 -21 50 -20 70 2 42 1 39 13 39 6 0 8
-12 5 -27z m110 1 c9 3 12 0 8 -10 -6 -17 -30 -19 -36 -1 -2 6 -1 19 2 27 4
12 6 11 9 -3 2 -11 9 -16 17 -13z m55 22 c0 -9 -30 -14 -35 -6 -4 6 3 10 14
10 12 0 21 -2 21 -4z m85 -6 c-3 -5 -2 -10 4 -10 5 0 12 6 15 13 3 6 5 3 3 -8
-3 -25 -47 -35 -47 -10 0 9 -4 13 -10 10 -5 -3 -10 -1 -10 4 0 6 12 11 26 11
14 0 23 -4 19 -10z m-697 -25 c-3 -3 -9 2 -12 12 -6 14 -5 15 5 6 7 -7 10 -15
7 -18z m-1896 -7 c-7 -7 -12 -8 -12 -2 0 14 12 26 19 19 2 -3 -1 -11 -7 -17z
m98 -3 c0 -8 -4 -15 -10 -15 -5 0 -7 7 -4 15 4 8 8 15 10 15 2 0 4 -7 4 -15z
m820 0 c0 -8 -4 -15 -10 -15 -5 0 -7 7 -4 15 4 8 8 15 10 15 2 0 4 -7 4 -15z
m529 -2 c0 -11 -3 -13 -6 -5 -2 6 -9 10 -13 7 -5 -3 -11 -1 -15 5 -3 5 3 10
14 10 14 0 21 -6 20 -17z m71 7 c0 -5 -4 -10 -10 -10 -5 0 -10 5 -10 10 0 6 5
10 10 10 6 0 10 -4 10 -10z m214 -14 c-3 -9 -10 -16 -15 -16 -14 0 -11 28 4
33 16 6 19 3 11 -17z m512 -13 c-4 -4 -11 -1 -16 7 -16 25 -11 35 7 17 9 -9
13 -20 9 -24z m1079 27 c-3 -5 -10 -10 -16 -10 -5 0 -9 5 -9 10 0 6 7 10 16
10 8 0 12 -4 9 -10z m-1648 -22 c-3 -8 -6 -5 -6 6 -1 11 2 17 5 13 3 -3 4 -12
1 -19z m1053 7 c0 -8 -4 -15 -10 -15 -5 0 -10 7 -10 15 0 8 5 15 10 15 6 0 10
-7 10 -15z m-2285 -35 c-3 -6 -1 -10 5 -10 6 0 8 -4 5 -10 -4 -6 -11 -5 -19 3
-8 7 -10 15 -5 18 6 3 7 14 4 25 -6 17 -6 18 5 1 6 -9 8 -22 5 -27z m1441 -26
c2 -52 1 -55 -12 -35 -9 12 -20 19 -25 16 -5 -3 -6 1 -3 9 3 9 11 13 16 10 6
-4 9 6 8 22 -3 39 -1 49 7 40 4 -3 8 -32 9 -62z m200 49 c14 -32 12 -53 -6
-53 -12 0 -17 9 -18 35 -1 37 11 46 24 18z m417 -4 c15 -1 17 -3 6 -6 -14 -3
-15 -8 -5 -28 6 -14 14 -25 19 -25 4 0 7 -5 7 -11 0 -8 -5 -7 -16 2 -13 10
-17 10 -24 -1 -8 -12 -10 -12 -15 1 -4 11 -14 15 -33 11 -15 -3 -24 -2 -21 2
4 4 21 8 38 8 17 1 31 3 31 5 0 11 -26 29 -36 26 -7 -2 -14 3 -17 11 -4 10 -1
13 7 10 8 -3 18 0 22 7 6 10 9 10 12 1 2 -7 13 -13 25 -13z m-2492 -32 c-8 -8
-11 -3 -11 19 1 25 2 27 11 11 8 -14 8 -22 0 -30z m389 28 c0 -8 -7 -15 -15
-15 -13 0 -14 3 -3 15 16 18 18 18 18 0z m1245 5 c3 -5 1 -10 -4 -10 -6 0 -11
5 -11 10 0 6 2 10 4 10 3 0 8 -4 11 -10z m365 6 c0 -2 -11 -6 -25 -8 -13 -3
-22 -1 -19 3 5 9 44 13 44 5z m34 -11 c-4 -9 0 -15 7 -15 11 0 11 -3 -1 -10
-22 -15 -27 -12 -24 13 3 28 2 27 14 27 5 0 7 -7 4 -15z m555 1 c9 -11 7 -15
-7 -18 -11 -3 -27 -1 -37 4 -14 8 -15 12 -4 19 20 12 35 11 48 -5z m-2534 -6
c3 -5 1 -10 -4 -10 -6 0 -11 5 -11 10 0 6 2 10 4 10 3 0 8 -4 11 -10z m1732
-6 c0 -9 -6 -10 -17 -4 -10 5 -21 6 -25 2 -5 -4 -5 -2 -1 5 8 15 43 13 43 -3z
m513 5 c0 -5 -6 -9 -12 -9 -9 0 -8 -4 2 -10 12 -8 11 -10 -7 -10 -12 0 -23 5
-25 12 -3 7 -7 6 -11 -5 -6 -16 8 -23 36 -18 14 2 7 -17 -10 -23 -9 -4 -23 0
-31 8 -13 13 -13 18 0 38 15 23 58 36 58 17z m103 -9 c3 -13 0 -20 -8 -20 -11
0 -13 14 -6 38 3 8 9 -1 14 -18z m542 -19 c-4 -17 -11 -28 -16 -25 -6 4 -6 10
0 18 6 7 8 16 5 19 -3 3 -3 11 1 17 12 19 17 3 10 -29z m-2784 -1 c5 0 9 -6 9
-14 0 -8 6 -17 13 -19 9 -4 9 -6 -1 -6 -7 -1 -15 6 -18 14 -10 24 -25 6 -19
-23 3 -15 2 -21 -1 -14 -9 19 -24 14 -17 -5 6 -15 5 -16 -9 -3 -15 13 -15 17
-2 26 19 15 18 24 -3 25 -14 0 -13 2 5 9 12 5 23 17 23 27 1 17 2 17 6 1 2
-10 9 -18 14 -18z m169 10 c0 -11 5 -20 11 -20 5 0 7 5 4 10 -4 6 5 10 24 8
24 -2 28 -5 19 -16 -8 -9 -13 -10 -18 -2 -5 8 -9 7 -13 -4 -4 -9 -13 -13 -21
-10 -15 6 -29 54 -15 54 5 0 9 -9 9 -20z m1255 10 c3 -5 1 -10 -4 -10 -6 0
-11 5 -11 10 0 6 2 10 4 10 3 0 8 -4 11 -10z m85 -11 c0 -5 -4 -9 -8 -9 -5 0
-9 7 -9 15 0 8 4 12 9 9 4 -3 8 -9 8 -15z m227 -11 c-3 -7 -5 -2 -5 12 0 14 2
19 5 13 2 -7 2 -19 0 -25z m1013 22 c0 -5 -2 -10 -4 -10 -3 0 -8 5 -11 10 -3
6 -1 10 4 10 6 0 11 -4 11 -10z m337 -7 c-15 -55 -17 -74 -7 -68 5 3 10 1 10
-4 0 -6 -7 -11 -16 -11 -9 0 -14 7 -13 18 1 9 -2 26 -6 36 -6 13 -4 21 3 24 7
2 10 8 6 13 -3 5 2 9 11 9 11 0 15 -6 12 -17z m-2977 -3 c0 -5 -4 -10 -10 -10
-5 0 -10 5 -10 10 0 6 5 10 10 10 6 0 10 -4 10 -10z m2247 -12 c-3 -8 -6 -5
-6 6 -1 11 2 17 5 13 3 -3 4 -12 1 -19z m768 -8 c-5 -16 -10 -19 -18 -11 -7 7
-6 15 3 26 17 20 24 13 15 -15z m-2662 0 c3 -11 1 -18 -4 -14 -5 3 -9 12 -9
20 0 20 7 17 13 -6z m1154 -23 c7 -4 13 -12 13 -17 0 -6 -11 0 -25 12 -14 12
-25 29 -25 37 1 12 3 11 12 -4 6 -11 17 -24 25 -28z m198 25 c-11 -2 -26 -9
-34 -16 -12 -9 -12 -8 -3 11 9 16 18 20 34 15 22 -6 22 -6 3 -10z m1035 8 c0
-5 -4 -10 -9 -10 -6 0 -13 5 -16 10 -3 6 1 10 9 10 9 0 16 -4 16 -10z m35 0
c3 -5 1 -10 -4 -10 -6 0 -11 5 -11 10 0 6 2 10 4 10 3 0 8 -4 11 -10z m-2639
-26 c-9 -9 -20 -14 -23 -10 -4 3 2 13 13 20 25 18 31 12 10 -10z m300 -31 c-6
-6 -45 36 -46 50 0 4 12 -4 26 -18 14 -14 24 -29 20 -32z m1091 51 c-3 -3 -12
-4 -19 -1 -8 3 -5 6 6 6 11 1 17 -2 13 -5z m-1540 -26 c-3 -8 -6 -5 -6 6 -1
11 2 17 5 13 3 -3 4 -12 1 -19z m1435 8 c7 4 8 2 4 -4 -11 -18 -26 -14 -25 6
0 10 3 12 6 4 2 -6 10 -9 15 -6z m651 -5 c4 -17 2 -18 -14 -8 -13 8 -15 13 -6
19 7 4 13 8 13 8 1 0 4 -9 7 -19z m850 -1 c3 -12 0 -20 -8 -20 -8 0 -11 8 -8
20 3 11 7 20 8 20 1 0 5 -9 8 -20z m135 3 c2 -8 -5 -13 -17 -13 -12 0 -21 6
-21 16 0 18 31 15 38 -3z m-2908 -63 c0 -12 -2 -12 -9 -2 -9 14 -32 13 -43 -3
-8 -12 -13 -7 -22 23 -5 13 -3 22 3 22 6 0 11 6 11 14 0 10 10 5 30 -12 17
-15 30 -33 30 -42z m140 60 c0 -5 -2 -10 -4 -10 -3 0 -8 5 -11 10 -3 6 -1 10
4 10 6 0 11 -4 11 -10z m353 3 c3 -5 -5 -8 -18 -8 -13 0 -21 3 -18 8 2 4 10 7
18 7 8 0 16 -3 18 -7z m737 -3 c0 -5 -2 -10 -4 -10 -2 0 -12 -3 -22 -7 -16 -6
-17 -5 -4 10 17 19 30 22 30 7z m960 -6 c0 -8 -4 -12 -10 -9 -5 3 -10 10 -10
16 0 5 5 9 10 9 6 0 10 -7 10 -16z m535 5 c11 -16 1 -19 -13 -3 -7 8 -8 14 -3
14 5 0 13 -5 16 -11z m-2815 -9 c0 -5 -5 -10 -11 -10 -5 0 -7 5 -4 10 3 6 8
10 11 10 2 0 4 -4 4 -10z m105 0 c-3 -5 -12 -10 -18 -10 -7 0 -6 4 3 10 19 12
23 12 15 0z m1947 -31 c-23 -22 -28 -15 -12 16 10 18 16 22 21 13 5 -7 1 -19
-9 -29z m86 24 c16 -16 16 -16 -2 -10 -14 5 -17 3 -13 -8 4 -8 2 -17 -3 -20
-6 -4 -10 3 -10 14 0 12 -4 21 -10 21 -5 0 -10 5 -10 10 0 16 30 12 48 -7z
m-1547 -12 c7 11 9 10 9 -4 0 -16 -6 -18 -42 -13 -23 3 -47 11 -52 16 -7 7 0
8 22 4 24 -5 32 -3 32 7 0 9 5 7 11 -5 9 -15 13 -16 20 -5z m676 4 c0 -8 -4
-12 -9 -9 -5 3 -6 10 -3 15 9 13 12 11 12 -6z m123 5 c0 -5 -2 -10 -4 -10 -3
0 -8 5 -11 10 -3 6 -1 10 4 10 6 0 11 -4 11 -10z m130 0 c0 -5 -5 -10 -11 -10
-5 0 -7 5 -4 10 3 6 8 10 11 10 2 0 4 -4 4 -10z m-1325 -10 c-3 -5 -12 -10
-18 -10 -7 0 -6 4 3 10 19 12 23 12 15 0z m2765 -11 c0 -6 -4 -7 -10 -4 -5 3
-10 11 -10 16 0 6 5 7 10 4 6 -3 10 -11 10 -16z m-2605 1 c3 -5 -1 -10 -9 -10
-9 0 -16 5 -16 10 0 6 4 10 9 10 6 0 13 -4 16 -10z m2485 -6 c0 -8 -4 -12 -10
-9 -5 3 -10 10 -10 16 0 5 5 9 10 9 6 0 10 -7 10 -16z m-2373 -16 c-3 -8 -6
-5 -6 6 -1 11 2 17 5 13 3 -3 4 -12 1 -19z m58 2 c3 -5 1 -10 -4 -10 -6 0 -11
5 -11 10 0 6 2 10 4 10 3 0 8 -4 11 -10z"/>
<path d="M2835 3140 l-30 -8 27 -1 c15 0 30 4 33 9 3 6 5 9 3 9 -2 -1 -16 -5
-33 -9z"/>
<path d="M2230 3038 c0 -12 7 -18 23 -17 15 0 17 2 7 6 -8 3 -18 11 -22 17 -5
7 -8 4 -8 -6z"/>
<path d="M2358 3033 c7 -3 16 -2 19 1 4 3 -2 6 -13 5 -11 0 -14 -3 -6 -6z"/>
<path d="M1630 3020 c0 -5 7 -10 16 -10 8 0 12 5 9 10 -3 6 -10 10 -16 10 -5
0 -9 -4 -9 -10z"/>
<path d="M2509 2387 c-9 -7 -22 -37 -29 -68 -10 -47 -10 -60 2 -84 26 -48 171
-95 154 -49 -3 8 -1 14 3 14 5 0 8 24 7 53 -2 52 -21 100 -51 131 -19 19 -63
20 -86 3z"/>
<path d="M1730 2311 c-27 -8 -37 -34 -39 -99 -1 -55 20 -95 66 -127 57 -38 69
-34 76 28 4 29 5 62 2 72 -13 59 -28 111 -34 116 -11 12 -46 17 -71 10z"/>
<path d="M2555 1597 c-16 -7 -41 -19 -55 -29 -14 -9 -40 -19 -57 -23 -18 -4
-36 -13 -41 -20 -4 -8 -23 -16 -42 -18 -20 -2 -40 -6 -45 -9 -21 -13 -97 0
-125 21 -16 11 -34 21 -40 21 -5 0 -10 5 -10 10 0 6 -16 10 -35 10 -33 0 -34
-1 -25 -26 9 -22 8 -25 -9 -19 -12 3 -21 0 -25 -10 -9 -25 3 -42 46 -61 23
-10 59 -31 80 -47 21 -15 43 -25 48 -22 4 3 23 -3 42 -14 18 -11 49 -22 68
-26 59 -10 161 -12 166 -3 3 5 12 4 20 -3 11 -9 14 -7 14 9 0 23 15 37 25 23
9 -15 37 -1 31 15 -3 8 1 14 9 14 8 0 15 4 15 10 0 5 7 7 15 4 11 -5 13 -2 9
10 -3 9 -2 16 2 16 5 0 10 10 11 23 1 12 5 45 8 73 7 46 5 53 -16 68 -27 18
-42 19 -84 3z m-75 -228 c0 -5 -13 -9 -30 -9 -39 0 -39 15 0 16 17 1 30 -3 30
-7z"/>
<path d="M3600 484 c0 -8 5 -12 10 -9 6 3 10 10 10 16 0 5 -4 9 -10 9 -5 0
-10 -7 -10 -16z"/>
<path d="M3140 465 c0 -8 6 -15 14 -15 8 0 17 -8 19 -17 4 -15 5 -14 6 3 1 20
-16 44 -31 44 -4 0 -8 -7 -8 -15z"/>
<path d="M3170 400 c0 -5 7 -10 16 -10 8 0 12 5 9 10 -3 6 -10 10 -16 10 -5 0
-9 -4 -9 -10z"/>
<path d="M3073 469 c-2 -22 12 -25 20 -5 3 8 0 16 -7 19 -6 3 -13 -4 -13 -14z"/>
<path d="M3298 265 c-3 -14 -1 -28 3 -31 5 -3 9 2 9 11 0 9 5 13 11 9 8 -4 8
0 0 15 -15 27 -18 26 -23 -4z"/>
<path d="M2640 330 c0 -5 5 -10 10 -10 6 0 10 5 10 10 0 6 -4 10 -10 10 -5 0
-10 -4 -10 -10z"/>
<path d="M3787 143 c-12 -12 -7 -22 8 -17 8 4 15 10 15 15 0 11 -14 12 -23 2z"/>
<path d="M3407 289 c7 -7 15 -10 18 -7 3 3 -2 9 -12 12 -14 6 -15 5 -6 -5z"/>
<path d="M3479 159 c-8 -4 -10 -11 -6 -16 5 -4 12 -1 16 6 6 9 11 10 15 2 4
-6 2 -11 -3 -11 -6 0 -11 -8 -11 -17 0 -9 3 -13 7 -10 3 4 12 2 18 -3 9 -8 14
-4 17 13 5 26 -30 50 -53 36z"/>
<path d="M361 54 c0 -11 3 -14 6 -6 3 7 2 16 -1 19 -3 4 -6 -2 -5 -13z"/>
<path d="M2865 50 c3 -5 11 -10 16 -10 6 0 7 5 4 10 -3 6 -11 10 -16 10 -6 0
-7 -4 -4 -10z"/>
<path d="M3730 39 c0 -5 5 -7 10 -4 6 3 10 8 10 11 0 2 -4 4 -10 4 -5 0 -10
-5 -10 -11z"/>
<path d="M3696 24 c-4 -9 -4 -19 -1 -22 2 -3 7 3 11 12 4 9 4 19 1 22 -2 3 -7
-3 -11 -12z"/>
<path d="M2847 23 c-15 -14 -5 -21 28 -21 36 0 46 11 19 22 -20 8 -39 8 -47
-1z"/>
</g>
</svg>
