<svg version="1.1" id="Layer_1" xmlns="http://www.w3.org/2000/svg" xmlns:xlink="http://www.w3.org/1999/xlink" x="0px" y="0px"
	 width="100%" viewBox="0 0 512 512" enable-background="new 0 0 512 512" xml:space="preserve">
<path fill="#000000" opacity="1.000000" stroke="none" 
	d="
M323.000000,513.000000 
	C216.692490,513.000000 110.884956,512.982300 5.077538,513.083496 
	C1.823786,513.086609 0.893687,512.662292 0.896230,509.079346 
	C1.015415,341.120392 1.016464,173.161362 0.893535,5.202444 
	C0.890802,1.468766 1.816972,0.911473 5.295611,0.913525 
	C173.087952,1.012490 340.880341,1.011025 508.672699,0.921628 
	C512.059143,0.919824 513.116211,1.346262 513.113220,5.170740 
	C512.982117,173.129654 512.985413,341.088684 513.100281,509.047638 
	C513.102661,512.565796 512.276428,513.096191 508.954071,513.089661 
	C447.136230,512.967407 385.318085,513.000000 323.000000,513.000000 
z"/>
<path fill="#BDCF47" opacity="1.000000" stroke="none" 
	d="
M458.628418,230.961502 
	C466.119415,227.738663 471.689392,221.880615 479.459106,219.740387 
	C483.947540,218.503967 488.434692,218.662735 492.697601,219.249466 
	C496.728577,219.804291 497.607849,224.008865 496.911774,227.548248 
	C495.316315,235.660919 493.023254,243.565125 488.071716,250.453186 
	C477.205048,265.569702 466.431183,280.752930 455.622681,295.911255 
	C453.257996,299.227570 454.531342,302.980377 455.227844,306.187744 
	C458.081238,319.326660 461.926331,332.256226 464.595581,345.427216 
	C466.674103,355.683319 468.454651,366.387878 460.791321,375.489502 
	C453.327576,384.354187 444.188873,390.376434 432.347382,392.085602 
	C421.129272,393.704803 410.153809,393.374115 399.299194,390.086884 
	C392.135681,387.917480 386.740845,384.256012 386.923737,375.681580 
	C386.953339,374.294250 386.157898,372.889282 385.743805,371.492432 
	C384.279694,372.111633 382.525024,372.404449 381.400909,373.405426 
	C376.011566,378.204285 369.570099,381.013550 363.160278,384.102325 
	C352.172058,389.397369 341.511688,395.372742 330.713257,401.061707 
	C329.487305,401.707581 329.534485,402.452789 329.838989,403.837097 
	C331.232910,410.173981 332.747589,416.534851 333.411682,422.970428 
	C334.548309,433.984955 338.015320,445.016663 334.912445,456.125885 
	C332.713409,463.999115 327.491913,469.337769 319.988586,473.199738 
	C306.977631,479.896667 293.215179,481.370819 279.027496,480.962402 
	C269.144073,480.677887 259.719849,478.451904 251.415405,472.752838 
	C248.449966,470.717773 246.901489,467.647644 246.000366,464.234924 
	C242.780304,452.039948 244.279327,439.586090 244.025253,427.233917 
	C243.808914,416.717560 245.220016,418.398865 234.628189,417.931030 
	C218.004715,417.196777 201.382263,416.242065 184.798538,414.897797 
	C177.717606,414.323822 170.709167,412.659973 163.723892,411.219391 
	C161.609802,410.783386 160.229233,411.647766 159.589966,413.045135 
	C154.664413,423.811981 145.560516,431.661560 139.411087,441.911469 
	C136.450745,442.161469 136.456512,440.172119 136.885117,438.653412 
	C139.726807,428.584259 134.903214,420.471466 130.273895,412.357849 
	C127.630501,407.724854 125.409355,402.890167 122.918556,398.188843 
	C118.056000,389.010834 119.914841,380.195618 124.097496,371.422913 
	C128.320190,362.566254 132.218094,353.567169 136.056335,344.534088 
	C139.529541,336.360046 138.372391,329.976593 131.874954,323.471283 
	C113.059784,304.633270 91.018616,300.671997 66.169998,307.633270 
	C62.471916,308.669312 60.230976,311.369812 58.949856,314.719879 
	C53.736343,328.353119 50.452606,342.340302 51.774429,357.099365 
	C52.019432,359.835052 52.984951,363.033508 48.235180,363.248901 
	C37.794010,355.237000 32.211239,344.226654 27.101179,333.023743 
	C19.594000,316.565491 19.671900,298.920349 20.041605,281.345612 
	C20.476908,260.652466 29.902767,243.747070 42.374866,227.898056 
	C50.016479,218.187378 59.980923,211.644394 69.913406,204.359955 
	C73.186874,200.022644 77.350845,201.607986 80.990921,202.470566 
	C86.156441,203.694611 90.952591,206.055969 95.268265,209.283020 
	C96.586540,210.268738 97.930641,211.285965 99.490669,211.892151 
	C100.807068,212.403656 102.152206,212.422501 103.171257,211.298004 
	C104.222931,210.137466 103.943764,208.782196 103.218483,207.597534 
	C101.812019,205.300232 99.810265,203.565414 97.654938,201.977402 
	C95.807106,200.615952 93.629265,199.399567 94.464462,196.190216 
	C105.254578,192.949570 116.082443,192.024261 127.461578,191.933777 
	C135.448120,189.822037 142.453781,192.371796 149.894775,194.530960 
	C156.754074,195.725006 162.380829,198.856918 168.331696,202.198059 
	C192.213165,212.652252 208.321838,230.096344 218.617783,253.432632 
	C226.106628,270.406464 230.004745,288.471527 235.492172,306.441223 
	C236.846283,314.646881 239.971985,321.833313 243.444641,329.301270 
	C250.019669,344.129150 260.512115,353.845764 276.527832,356.270966 
	C316.882233,362.381775 355.940155,357.634521 393.129883,340.627411 
	C414.877716,330.681976 430.113770,313.254578 443.190338,293.812927 
	C452.362488,280.176239 457.164032,265.165558 456.628204,248.603256 
	C456.493408,244.437485 455.578766,240.353882 455.411591,236.183899 
	C455.314789,233.768570 455.745728,231.892532 458.628418,230.961502 
z"/>
<path fill="#494F23" opacity="1.000000" stroke="none" 
	d="
M242.006378,330.519684 
	C237.459442,323.293732 234.926361,315.647980 233.194244,307.239075 
	C235.294983,304.426086 237.814423,305.512756 240.101379,306.299561 
	C252.982208,310.731018 266.282745,312.409729 279.824280,312.624420 
	C280.988831,312.642883 282.156647,312.635834 283.317322,312.532074 
	C289.486298,311.980499 291.015778,309.943939 290.130219,303.684387 
	C287.074982,282.088470 282.337311,260.816284 277.842682,239.496353 
	C275.475342,228.266998 273.059753,217.050323 270.546875,205.851318 
	C268.476166,196.622879 263.293091,191.512970 254.104446,189.460815 
	C235.273621,185.255234 216.354233,181.421478 197.649963,176.670303 
	C190.275024,174.796951 185.195068,177.227783 181.184174,183.503754 
	C178.031631,188.436661 175.503372,193.660980 172.767242,198.796188 
	C171.774628,200.659134 171.149246,202.900085 168.370758,203.730789 
	C162.083038,202.016113 156.937927,198.285004 150.436768,196.986023 
	C147.590561,194.226913 148.975449,191.711243 150.369644,189.194595 
	C154.376801,181.961258 158.814697,175.019562 163.845749,168.438980 
	C168.479660,162.377884 168.174484,159.388824 162.963120,153.676483 
	C161.194717,151.738083 159.121994,150.034515 157.927551,147.219330 
	C162.556503,141.145767 168.160019,136.433975 174.544510,132.109573 
	C176.659866,131.273422 177.837341,132.318039 178.512924,133.685211 
	C185.164505,147.146011 197.981766,151.092331 210.972763,154.414749 
	C230.797607,159.484894 250.891846,163.327133 271.125824,166.397644 
	C274.971619,166.981247 278.769562,166.617996 282.379486,165.026871 
	C302.473083,156.170395 323.008209,148.391785 343.329926,140.092636 
	C348.479248,137.989716 351.834625,134.633911 353.271820,129.144348 
	C354.242218,125.437607 354.962952,121.688293 355.857330,117.973305 
	C356.392151,115.751862 356.702301,113.258636 359.932037,112.773766 
	C366.484650,114.840584 371.504517,118.880936 377.003174,122.482834 
	C379.349213,124.933899 378.848297,127.526062 377.710907,129.741974 
	C372.657318,139.587860 375.599548,147.744080 382.033051,155.849487 
	C398.673370,176.814178 413.921570,198.849655 430.743561,219.681793 
	C431.755676,220.935196 432.701599,222.709000 434.654816,222.266068 
	C436.379669,221.874924 436.438385,220.039612 436.811798,218.618301 
	C438.248352,213.150726 439.695190,207.716446 439.934204,201.983383 
	C440.065155,198.843048 440.742920,195.291962 445.868042,196.794708 
	C449.916016,201.727829 450.456757,207.826843 452.953308,213.105194 
	C453.721252,214.728806 454.150604,216.512558 454.880371,218.554794 
	C455.854187,228.732498 451.767700,237.462723 448.541168,246.316422 
	C441.850739,264.675232 432.269226,281.331421 418.232391,295.154449 
	C398.253815,314.828735 374.666046,327.868835 347.076050,333.327118 
	C333.328827,336.046783 319.390259,337.055389 305.390228,337.369690 
	C290.762054,337.698090 276.144135,337.973297 261.558746,336.354095 
	C257.080688,335.856964 252.670670,335.023682 248.246216,334.231018 
	C245.819641,333.796234 243.960052,332.497803 242.006378,330.519684 
z"/>
<path fill="#D6E260" opacity="1.000000" stroke="none" 
	d="
M47.945946,363.474670 
	C50.239021,362.164917 49.866436,360.325073 49.620316,358.450043 
	C47.614922,343.172455 51.312290,328.754272 56.260582,314.519958 
	C58.809086,307.188904 64.768738,305.203033 71.647163,303.754822 
	C98.728737,298.053040 120.771317,306.004730 138.275955,327.288971 
	C141.009445,330.612671 141.485580,334.020752 140.532196,337.974213 
	C138.092896,348.089417 134.184998,357.861908 128.868759,366.523651 
	C119.212486,382.256622 122.654945,396.026672 131.677673,410.209106 
	C136.096649,417.155090 140.576797,424.291626 140.138458,433.257507 
	C139.997986,436.130615 138.488159,438.643585 138.910004,441.771729 
	C134.197433,451.655182 124.691467,451.065308 116.189522,451.842133 
	C108.500694,452.544647 100.660698,452.403290 92.986153,450.921234 
	C87.353645,449.833557 83.616348,445.521912 79.809662,441.901154 
	C75.042183,437.366547 70.755180,432.138580 67.152870,426.626862 
	C64.283318,422.236328 62.877850,416.911682 60.602921,412.105591 
	C53.369484,396.824097 49.526226,380.674957 47.945946,363.474670 
z"/>
<path fill="#6E823A" opacity="1.000000" stroke="none" 
	d="
M360.037537,112.667526 
	C357.766388,116.325935 357.761047,120.481850 357.107849,124.346939 
	C355.508942,133.807663 351.037598,139.987808 341.513519,143.614090 
	C323.321045,150.540894 305.054321,157.391739 287.418701,165.704941 
	C280.485535,168.973145 273.528839,169.520813 266.042328,168.139481 
	C244.106400,164.092056 222.165146,160.275116 200.682693,153.964493 
	C188.667419,150.434906 180.791107,143.149612 175.074860,132.219391 
	C179.184082,128.147919 184.359039,125.593109 189.185760,122.531258 
	C207.026901,111.213623 226.926239,106.067131 247.583786,102.909317 
	C267.394684,99.880920 287.305298,100.705292 307.127045,101.289581 
	C319.477264,101.653641 331.867828,103.901131 343.950134,107.328217 
	C349.303528,108.846687 354.835327,109.660385 360.037537,112.667526 
z"/>
<path fill="#6E823A" opacity="1.000000" stroke="none" 
	d="
M241.725433,330.673706 
	C256.733582,334.120361 272.122559,335.442078 287.605042,335.335266 
	C321.307831,335.102814 354.883514,334.019775 385.431946,316.866333 
	C414.955719,300.288300 435.645386,276.284943 446.744019,244.209564 
	C449.566772,236.051819 452.052216,227.777344 454.859161,219.221558 
	C457.419403,222.287979 457.076874,226.575729 458.859772,230.570587 
	C457.785583,232.603271 457.333801,234.384033 457.724823,236.536072 
	C463.117584,266.215515 451.140625,289.841492 432.750519,311.958221 
	C409.823212,339.531647 379.505951,352.116364 345.455322,357.889099 
	C322.000488,361.865509 298.446594,362.650360 274.888641,358.425598 
	C258.687378,355.520142 248.146072,345.813660 241.725433,330.673706 
z"/>
<path fill="#6E813A" opacity="1.000000" stroke="none" 
	d="
M446.001709,196.668579 
	C441.798523,197.418274 442.229980,200.900192 442.113190,203.755478 
	C441.830811,210.658096 440.007263,217.201752 437.703857,223.614685 
	C435.968597,228.445801 435.326447,228.462143 432.040466,224.741531 
	C418.930878,209.897919 407.943085,193.420334 395.847107,177.796555 
	C389.236328,169.257721 382.682922,160.687210 376.431976,151.872513 
	C372.312164,146.062973 371.235626,140.258362 373.881958,133.617310 
	C375.167816,130.390350 375.966675,126.969345 377.015259,123.237183 
	C382.689697,124.685501 387.096558,128.688522 392.015594,131.738129 
	C401.450500,137.587418 407.788330,146.994934 416.238159,154.097397 
	C421.591888,158.597488 425.037598,165.081604 429.271027,170.734802 
	C435.392853,178.909805 440.965851,187.392593 446.001709,196.668579 
z"/>
<path fill="#6E823A" opacity="1.000000" stroke="none" 
	d="
M157.572464,147.052231 
	C168.328903,150.135056 172.218887,161.249512 165.812698,169.857162 
	C159.677124,178.101196 153.642685,186.388229 150.075317,196.527512 
	C143.178680,194.189178 135.611115,194.562820 128.274353,192.042557 
	C133.548798,179.418549 140.874527,167.964554 149.063141,157.052597 
	C151.622192,153.642456 154.536484,150.498932 157.572464,147.052231 
z"/>
<path fill="#2F3029" opacity="1.000000" stroke="none" 
	d="
M94.379562,195.727600 
	C95.568291,199.129120 99.075615,199.615540 100.939865,201.852127 
	C102.311653,203.497849 104.006172,204.881424 105.321793,206.565491 
	C107.135811,208.887527 107.546585,211.484283 105.268784,213.733932 
	C103.062332,215.913162 100.418983,215.809189 98.040833,214.021347 
	C93.792633,210.827652 89.418549,207.909668 84.465500,205.884659 
	C80.104141,204.101578 75.721565,202.826859 70.518463,204.022552 
	C66.826057,204.154678 63.640820,203.873596 61.724491,200.831146 
	C59.046932,196.580154 61.480408,192.008865 66.493416,191.014053 
	C76.299950,189.067978 85.327545,191.388428 94.379562,195.727600 
z"/>
<path fill="#6E823A" opacity="1.000000" stroke="none" 
	d="
M168.211960,204.088074 
	C171.953415,194.458878 176.125809,185.210037 182.931107,177.444229 
	C185.937439,174.013580 189.480682,172.667648 194.081100,173.710510 
	C214.701202,178.384827 235.323502,183.056335 255.998688,187.477722 
	C265.459564,189.500916 270.541779,195.133865 272.641327,204.414688 
	C280.174072,237.712433 287.584473,271.031708 292.793701,304.790497 
	C294.008606,312.664001 292.189758,314.626343 283.521851,314.893494 
	C268.253723,315.364075 253.285461,313.506805 238.806656,308.391937 
	C237.239212,307.838226 235.612244,307.453033 233.574524,306.892029 
	C230.058380,296.068390 227.018707,285.331329 223.895538,274.618561 
	C214.888580,243.723892 198.548447,218.600601 168.211960,204.088074 
z"/>
<path fill="#2E3029" opacity="1.000000" stroke="none" 
	d="
M75.530365,285.074341 
	C73.851135,282.192963 75.116432,280.493683 77.080086,278.815735 
	C97.181473,261.638977 133.087051,267.293060 147.111710,289.868927 
	C148.404892,291.950592 149.569351,294.175446 147.405838,296.179810 
	C145.187897,298.234558 143.130798,296.661346 141.171249,295.268433 
	C122.878021,282.264709 102.989265,278.868225 81.474342,285.442474 
	C79.541794,286.032990 77.661926,286.750916 75.530365,285.074341 
z"/>
<path fill="#2F3029" opacity="1.000000" stroke="none" 
	d="
M166.823395,251.795288 
	C165.254669,263.401642 158.395767,269.977692 149.465256,268.862335 
	C140.488159,267.741180 134.508514,258.958282 135.514297,248.371140 
	C136.472122,238.288681 142.826889,231.873550 151.638458,232.093826 
	C160.809250,232.323044 166.591721,239.655060 166.823395,251.795288 
z"/>
<path fill="#2E2F29" opacity="1.000000" stroke="none" 
	d="
M79.753235,257.870087 
	C70.000908,259.246002 63.464161,255.350586 60.853218,246.934906 
	C57.841801,237.228424 61.397152,226.934814 69.097450,223.065918 
	C74.830261,220.185547 81.873268,221.608826 86.442375,226.306213 
	C93.986359,234.062042 93.185509,253.694794 79.753235,257.870087 
z"/>
<path fill="#2F3129" opacity="1.000000" stroke="none" 
	d="
M131.292786,219.342407 
	C130.210129,215.067719 132.241653,213.006607 135.658859,211.930511 
	C149.524979,207.563934 162.502502,209.238297 174.459518,217.726089 
	C177.249313,219.706436 178.603302,222.315948 176.703415,225.397766 
	C174.818954,228.454559 171.835815,228.516418 168.818771,226.950500 
	C159.187546,221.951706 148.975037,220.718979 138.358887,222.296783 
	C135.484863,222.723923 133.075073,222.361023 131.292786,219.342407 
z"/>
<path fill="#6E823A" opacity="1.000000" stroke="none" 
	d="
M362.618835,303.669739 
	C351.307465,307.370453 340.188354,310.159332 328.772949,311.713409 
	C320.162872,312.885590 317.246307,311.263031 314.565735,303.112823 
	C307.731293,282.332947 304.241302,260.780029 300.018707,239.397018 
	C297.601593,227.156723 295.041565,214.944458 292.663239,202.696793 
	C292.159821,200.104385 292.191956,197.410370 291.934265,194.767349 
	C291.423645,189.530807 293.594208,185.760742 298.126709,183.230850 
	C315.014404,173.804764 332.543610,165.805786 350.743286,159.239838 
	C356.965149,156.995178 360.881989,159.993210 364.509644,164.344604 
	C372.409698,173.820786 379.303680,184.044128 386.288666,194.174118 
	C396.962982,209.654556 408.414581,224.575943 418.610260,240.416336 
	C424.030731,248.837723 423.165009,255.561722 417.671783,263.162598 
	C403.707397,282.484833 386.466003,297.182220 362.618835,303.669739 
z"/>
<path fill="#686868" opacity="1.000000" stroke="none" 
	d="
M150.308777,248.388092 
	C146.937332,250.662872 143.945007,250.678909 141.893234,247.418442 
	C140.056320,244.499466 141.044571,241.603271 143.572876,239.491165 
	C146.097839,237.381866 149.145416,236.785156 151.558578,239.390701 
	C154.336304,242.389862 153.136063,245.449860 150.308777,248.388092 
z"/>
<path fill="#676767" opacity="1.000000" stroke="none" 
	d="
M67.687088,231.765106 
	C70.673882,228.479309 73.724777,226.651596 77.270821,230.156326 
	C79.735466,232.592270 78.780090,236.666382 75.420906,239.211395 
	C73.213203,240.883987 70.835960,241.374573 68.540932,239.590485 
	C65.861816,237.507828 65.766205,234.867615 67.687088,231.765106 
z"/>
</svg>