<?xml version="1.0" encoding="UTF-8"?>
<!DOCTYPE svg PUBLIC "-//W3C//DTD SVG 1.1//EN" "http://www.w3.org/Graphics/SVG/1.1/DTD/svg11.dtd">
<svg xmlns="http://www.w3.org/2000/svg" version="1.1" width="512px" height="512px" style="shape-rendering:geometricPrecision; text-rendering:geometricPrecision; image-rendering:optimizeQuality; fill-rule:evenodd; clip-rule:evenodd" xmlns:xlink="http://www.w3.org/1999/xlink">
<g><path style="opacity:0.981" fill="#6d8139" d="M 357.5,111.5 C 356.622,119.389 354.789,127.056 352,134.5C 350.833,135.667 349.667,136.833 348.5,138C 324.76,147.366 301.093,157.033 277.5,167C 248.097,165.319 219.43,159.653 191.5,150C 184.722,145.888 179.222,140.388 175,133.5C 174.517,132.552 174.351,131.552 174.5,130.5C 196.496,113.519 221.496,103.686 249.5,101C 277.121,98.3704 304.621,99.2038 332,103.5C 336.452,104.528 340.786,105.862 345,107.5C 345.333,107.167 345.667,106.833 346,106.5C 350.041,107.895 353.875,109.562 357.5,111.5 Z"/></g>
<g><path style="opacity:1" fill="#484f23" d="M 357.5,111.5 C 364.315,114.073 370.649,117.406 376.5,121.5C 373.556,126.915 371.556,132.748 370.5,139C 371.289,143.083 372.789,146.916 375,150.5C 393.682,175.86 412.849,200.86 432.5,225.5C 433.167,226.833 433.833,226.833 434.5,225.5C 438.813,215.626 440.979,205.293 441,194.5C 441.671,195.252 442.504,195.586 443.5,195.5C 447.557,202.704 450.557,210.371 452.5,218.5C 439.063,278.769 402.397,315.936 342.5,330C 315.934,333.325 289.267,334.325 262.5,333C 254.682,332.142 247.016,330.642 239.5,328.5C 236.547,322.3 234.214,315.967 232.5,309.5C 232.5,308.167 232.5,306.833 232.5,305.5C 239.722,307.939 247.056,310.105 254.5,312C 261.481,312.771 268.481,313.271 275.5,313.5C 280.634,313.662 285.634,312.995 290.5,311.5C 291.469,305.502 291.303,299.502 290,293.5C 284.697,265.017 279.03,236.683 273,208.5C 271.832,200.997 268.665,194.497 263.5,189C 243.848,183.892 224.181,178.892 204.5,174C 197.867,172.78 191.2,172.447 184.5,173C 176.883,181.055 170.883,190.222 166.5,200.5C 166.043,201.298 165.376,201.631 164.5,201.5C 159.376,198.938 154.043,196.938 148.5,195.5C 152.194,185.113 157.694,175.78 165,167.5C 168.926,162.944 169.259,158.278 166,153.5C 163.599,150.262 160.765,147.595 157.5,145.5C 162.251,139.413 167.918,134.413 174.5,130.5C 174.351,131.552 174.517,132.552 175,133.5C 179.222,140.388 184.722,145.888 191.5,150C 219.43,159.653 248.097,165.319 277.5,167C 301.093,157.033 324.76,147.366 348.5,138C 349.667,136.833 350.833,135.667 352,134.5C 354.789,127.056 356.622,119.389 357.5,111.5 Z"/></g>
<g><path style="opacity:0.97" fill="#6d8139" d="M 376.5,121.5 C 405.117,140.451 427.45,165.118 443.5,195.5C 442.504,195.586 441.671,195.252 441,194.5C 440.979,205.293 438.813,215.626 434.5,225.5C 433.833,226.833 433.167,226.833 432.5,225.5C 412.849,200.86 393.682,175.86 375,150.5C 372.789,146.916 371.289,143.083 370.5,139C 371.556,132.748 373.556,126.915 376.5,121.5 Z"/></g>
<g><path style="opacity:0.943" fill="#6d8139" d="M 157.5,145.5 C 160.765,147.595 163.599,150.262 166,153.5C 169.259,158.278 168.926,162.944 165,167.5C 157.694,175.78 152.194,185.113 148.5,195.5C 141.299,193.685 134.299,192.018 127.5,190.5C 135.269,173.948 145.269,158.948 157.5,145.5 Z"/></g>
<g><path style="opacity:1" fill="#6d8139" d="M 351.5,156.5 C 353.199,156.34 354.866,156.506 356.5,157C 362.127,161.416 366.96,166.583 371,172.5C 385.611,194.11 400.611,215.444 416,236.5C 419.453,241.374 421.12,246.708 421,252.5C 409.886,274.284 393.052,289.784 370.5,299C 360.666,302.585 350.666,305.585 340.5,308C 332.924,309.893 325.258,310.559 317.5,310C 314.428,304.464 311.928,298.631 310,292.5C 303.488,263.938 297.488,235.271 292,206.5C 290.78,199.867 290.447,193.2 291,186.5C 299.255,179.617 308.421,174.117 318.5,170C 329.619,165.429 340.619,160.929 351.5,156.5 Z"/></g>
<g><path style="opacity:1" fill="#6d8139" d="M 232.5,309.5 C 227.6,285.637 219.767,262.637 209,240.5C 197.732,223.396 182.898,210.396 164.5,201.5C 165.376,201.631 166.043,201.298 166.5,200.5C 170.883,190.222 176.883,181.055 184.5,173C 191.2,172.447 197.867,172.78 204.5,174C 224.181,178.892 243.848,183.892 263.5,189C 268.665,194.497 271.832,200.997 273,208.5C 279.03,236.683 284.697,265.017 290,293.5C 291.303,299.502 291.469,305.502 290.5,311.5C 285.634,312.995 280.634,313.662 275.5,313.5C 268.481,313.271 261.481,312.771 254.5,312C 247.056,310.105 239.722,307.939 232.5,305.5C 232.5,306.833 232.5,308.167 232.5,309.5 Z"/></g>
<g><path style="opacity:0.967" fill="#2c2d28" d="M 92.5,194.5 C 96.7712,198.269 100.938,202.269 105,206.5C 104.956,213.167 101.789,215 95.5,212C 87.975,205.328 79.3084,202.162 69.5,202.5C 60.4293,202.141 58.096,197.975 62.5,190C 73.0895,187.906 83.0895,189.406 92.5,194.5 Z"/></g>
<g><path style="opacity:0.982" fill="#bcce46" d="M 127.5,190.5 C 134.299,192.018 141.299,193.685 148.5,195.5C 154.043,196.938 159.376,198.938 164.5,201.5C 182.898,210.396 197.732,223.396 209,240.5C 219.767,262.637 227.6,285.637 232.5,309.5C 234.214,315.967 236.547,322.3 239.5,328.5C 248.253,348.394 263.586,358.561 285.5,359C 323.876,362.382 360.542,356.049 395.5,340C 415.982,327.185 432.815,310.685 446,290.5C 456.79,271.815 460.29,251.815 456.5,230.5C 463.356,226.494 470.356,222.661 477.5,219C 492.136,214.063 497.303,218.897 493,233.5C 491.607,237.286 489.941,240.952 488,244.5C 478.912,257.676 469.579,270.676 460,283.5C 456.782,288.103 453.948,292.936 451.5,298C 455.094,315.211 458.927,332.377 463,349.5C 464.807,368.061 456.974,380.895 439.5,388C 423.574,393.083 407.907,392.416 392.5,386C 391,384.5 389.5,383 388,381.5C 387.256,377.018 386.09,372.685 384.5,368.5C 377.743,373.877 370.576,377.877 363,380.5C 351.288,387.772 339.121,394.106 326.5,399.5C 330.124,414.624 332.458,429.958 333.5,445.5C 333.846,455.642 329.846,463.476 321.5,469C 304.362,478.77 286.029,481.77 266.5,478C 252.705,475.541 245.205,467.375 244,453.5C 242.821,441.194 242.321,428.861 242.5,416.5C 215.307,416.296 188.307,413.963 161.5,409.5C 160.5,409.833 159.5,410.167 158.5,410.5C 151.444,419.876 144.444,429.209 137.5,438.5C 138.559,433.552 138.726,428.552 138,423.5C 133.24,413.645 128.24,403.978 123,394.5C 122.062,391.188 121.229,387.855 120.5,384.5C 125.176,369.798 131.01,355.464 138,341.5C 139.697,336.872 139.864,332.205 138.5,327.5C 122.562,306.749 101.562,297.915 75.5,301C 65.1069,300.602 57.9402,305.102 54,314.5C 53.5322,318.403 52.3655,322.07 50.5,325.5C 49.8061,330.524 48.9728,335.524 48,340.5C 47.7375,347.695 47.5708,354.695 47.5,361.5C 37.0733,351.869 29.5733,340.202 25,326.5C 12.2614,289.658 17.9281,255.992 42,225.5C 50.4551,216.869 59.6217,209.203 69.5,202.5C 79.3084,202.162 87.975,205.328 95.5,212C 101.789,215 104.956,213.167 105,206.5C 100.938,202.269 96.7712,198.269 92.5,194.5C 104.004,191.916 115.671,190.583 127.5,190.5 Z"/></g>
<g><path style="opacity:1" fill="#2d2e28" d="M 136.5,208.5 C 146.723,207.856 156.723,209.022 166.5,212C 169.423,214.045 172.257,216.212 175,218.5C 176.539,222.805 175.206,225.472 171,226.5C 164.4,223.618 157.567,221.451 150.5,220C 144.157,219.82 137.824,219.82 131.5,220C 129.604,218.192 129.104,216.025 130,213.5C 132.027,211.565 134.194,209.898 136.5,208.5 Z"/></g>
<g><path style="opacity:0.999" fill="#6e8239" d="M 452.5,218.5 C 454.128,222.319 455.461,226.319 456.5,230.5C 460.29,251.815 456.79,271.815 446,290.5C 432.815,310.685 415.982,327.185 395.5,340C 360.542,356.049 323.876,362.382 285.5,359C 263.586,358.561 248.253,348.394 239.5,328.5C 247.016,330.642 254.682,332.142 262.5,333C 289.267,334.325 315.934,333.325 342.5,330C 402.397,315.936 439.063,278.769 452.5,218.5 Z"/></g>
<g><path style="opacity:1" fill="#2d2e29" d="M 68.5,220.5 C 86.5728,220.775 93.0728,229.775 88,247.5C 83.3342,255.413 76.5009,258.246 67.5,256C 58.0909,248.225 55.9242,238.725 61,227.5C 63.3959,224.933 65.8959,222.6 68.5,220.5 Z"/></g>
<g><path style="opacity:1" fill="#666666" d="M 69.5,226.5 C 75.9972,226.18 78.1639,229.18 76,235.5C 70.9202,241.316 67.0869,240.65 64.5,233.5C 65.7695,230.895 67.4361,228.562 69.5,226.5 Z"/></g>
<g><path style="opacity:1" fill="#2d2e29" d="M 144.5,230.5 C 160.736,230.246 167.569,238.246 165,254.5C 160.657,266.092 152.823,269.592 141.5,265C 134.861,258.544 132.694,250.71 135,241.5C 137.314,237.025 140.48,233.358 144.5,230.5 Z"/></g>
<g><path style="opacity:1" fill="#676766" d="M 144.5,235.5 C 150.303,235.81 152.47,238.81 151,244.5C 145.79,250.36 141.957,249.694 139.5,242.5C 140.014,239.323 141.681,236.989 144.5,235.5 Z"/></g>
<g><path style="opacity:1" fill="#2c2d28" d="M 95.5,267.5 C 116.28,265.314 133.113,272.314 146,288.5C 146.667,290.5 146.667,292.5 146,294.5C 144.612,295.554 143.112,295.72 141.5,295C 121.057,280.174 98.7233,276.507 74.5,284C 73.1667,282 73.1667,280 74.5,278C 81.045,273.394 88.045,269.894 95.5,267.5 Z"/></g>
<g><path style="opacity:0.995" fill="#d5e15f" d="M 137.5,438.5 C 136.577,441.838 134.577,444.338 131.5,446C 120.553,450.184 109.219,451.517 97.5,450C 93.2842,449.28 89.2842,447.947 85.5,446C 76.1691,438.335 68.6691,429.169 63,418.5C 54.5574,400.397 49.3907,381.397 47.5,361.5C 47.5708,354.695 47.7375,347.695 48,340.5C 48.9728,335.524 49.8061,330.524 50.5,325.5C 52.3655,322.07 53.5322,318.403 54,314.5C 57.9402,305.102 65.1069,300.602 75.5,301C 101.562,297.915 122.562,306.749 138.5,327.5C 139.864,332.205 139.697,336.872 138,341.5C 131.01,355.464 125.176,369.798 120.5,384.5C 121.229,387.855 122.062,391.188 123,394.5C 128.24,403.978 133.24,413.645 138,423.5C 138.726,428.552 138.559,433.552 137.5,438.5 Z"/></g>
</svg>
