<?xml version="1.0" standalone="no"?>
<!DOCTYPE svg PUBLIC "-//W3C//DTD SVG 20010904//EN"
 "http://www.w3.org/TR/2001/REC-SVG-20010904/DTD/svg10.dtd">
<svg version="1.0" xmlns="http://www.w3.org/2000/svg"
 width="460.000000pt" height="460.000000pt" viewBox="0 0 460.000000 460.000000"
 preserveAspectRatio="xMidYMid meet">

<g transform="translate(0.000000,460.000000) scale(0.100000,-0.100000)"
fill="#000000" stroke="none">
<path d="M1305 3189 c-110 -18 -272 -99 -343 -171 -42 -41 -43 -45 -37 -88 7
-50 44 -134 72 -165 128 -144 373 -134 491 20 78 102 78 285 0 379 -27 33 -33
36 -81 35 -29 -1 -74 -5 -102 -10z"/>
<path d="M3215 3194 c-11 -2 -44 -9 -73 -15 -98 -20 -226 -88 -312 -165 -38
-34 -41 -41 -35 -73 15 -87 74 -186 137 -229 94 -64 267 -64 353 1 54 41 81
73 112 132 22 42 27 63 27 131 0 77 -2 85 -40 150 l-39 69 -55 2 c-30 0 -64
-1 -75 -3z"/>
<path d="M2358 1755 c-56 -32 -75 -114 -39 -169 31 -46 57 -55 162 -56 128 0
179 -20 179 -70 0 -15 -78 -50 -113 -50 -37 0 -87 -52 -87 -89 0 -47 33 -87
82 -99 94 -24 149 -91 108 -132 -23 -23 -108 -41 -201 -41 -125 -1 -174 -35
-174 -125 0 -47 4 -57 33 -86 32 -32 35 -33 115 -32 205 1 374 79 428 197 35
78 21 204 -32 278 l-21 30 21 23 c24 26 51 103 51 147 0 16 -9 52 -20 81 -49
129 -167 195 -364 204 -80 4 -107 1 -128 -11z"/>
</g>
</svg>
