<?xml version="1.0" standalone="no"?>
<!DOCTYPE svg PUBLIC "-//W3C//DTD SVG 20010904//EN"
 "http://www.w3.org/TR/2001/REC-SVG-20010904/DTD/svg10.dtd">
<svg version="1.0" xmlns="http://www.w3.org/2000/svg"
 width="535.000000pt" height="535.000000pt" viewBox="0 0 535.000000 535.000000"
 preserveAspectRatio="xMidYMid meet">
<metadata>
Created by potrace 1.14, written by Peter Selinger 2001-2017
</metadata>
<g transform="translate(0.000000,535.000000) scale(0.100000,-0.100000)"
fill="#000000" stroke="none">
<path d="M2748 4295 c-1 -1 -39 -6 -83 -10 -383 -33 -797 -228 -1013 -475 -95
-109 -99 -114 -157 -204 -52 -79 -71 -111 -126 -210 l-27 -50 -64 -2 c-91 -4
-174 -13 -243 -27 -56 -11 -64 -11 -120 12 -79 32 -213 41 -250 17 -28 -19
-33 -56 -10 -79 8 -8 42 -18 75 -22 l61 -7 -48 -26 c-161 -85 -336 -267 -422
-441 -37 -73 -78 -184 -86 -232 -36 -209 -27 -376 31 -562 46 -145 105 -254
195 -359 49 -57 50 -59 69 -175 63 -385 251 -709 452 -780 139 -49 373 -8 438
77 12 16 70 98 129 182 76 109 112 153 126 153 11 0 50 -5 86 -12 37 -7 92
-15 123 -18 32 -4 67 -8 78 -10 12 -3 69 -7 127 -10 58 -3 129 -7 156 -10 28
-2 106 -7 175 -10 69 -4 126 -8 128 -10 2 -2 5 -65 7 -141 9 -341 30 -406 149
-464 55 -26 178 -47 266 -44 72 2 169 12 180 19 4 2 22 7 40 10 54 9 152 62
198 106 60 56 84 114 85 203 0 76 -19 249 -33 306 -5 19 -12 53 -15 75 -4 22
-10 55 -15 73 l-9 33 157 79 c227 114 280 142 411 222 73 45 75 44 86 -40 8
-67 23 -92 72 -119 81 -45 295 -63 403 -33 115 31 219 109 277 207 25 43 28
57 27 133 -1 51 -10 121 -23 175 -13 50 -25 101 -27 115 -3 14 -16 72 -30 130
-35 148 -39 200 -20 237 8 17 80 120 158 229 162 227 230 335 252 402 41 124
17 163 -91 148 -37 -5 -153 -56 -173 -76 -10 -10 -111 -62 -114 -58 -2 1 -8
29 -14 60 -18 93 -87 257 -160 379 -209 351 -485 624 -787 777 -68 35 -204 86
-255 97 -8 2 -44 10 -80 19 -36 8 -89 18 -119 21 -30 4 -63 9 -75 12 -23 6
-522 14 -528 8z"/>
</g>
</svg>
